<svg width="90" height="113" viewBox="0 0 90 113" fill="none" xmlns="http://www.w3.org/2000/svg">
<g clip-path="url(#clip0_632_1516)">
<path fill-rule="evenodd" clip-rule="evenodd" d="M0.00713281 86.1799C0.00713281 89.5247 -0.215463 90.5886 1.79502 93.5586C2.72993 94.9388 3.964 95.8962 5.25505 96.8714C7.6306 98.6636 11.1245 100.225 14.2497 101.209C25.668 104.802 39.7218 105.595 52.6217 104.012C52.5184 103.973 52.4169 103.92 52.3225 103.849C51.6458 103.346 51.9414 101.042 52.0465 100.232C52.6252 95.7861 53.7489 92.3028 56.2224 88.3967C56.6462 87.7271 57.0202 87.2226 57.5206 86.5565L59.0057 84.7873C59.7519 83.8157 59.5471 84.3503 59.4616 82.9435C59.3797 81.5882 59.5417 81.1317 59.5382 80.1761C59.5311 78.5383 60.0795 75.4671 60.4197 73.7939C60.6672 72.5771 60.977 71.3728 61.3831 70.1792C62.4604 67.0138 62.7097 66.2127 64.446 62.8804C65.144 61.5411 66.1894 59.8288 67.4021 58.2212C66.8732 57.7558 66.3745 57.3313 65.9935 57.0116C65.1191 56.2744 64.4104 55.8179 63.4986 55.1376C62.5138 54.4022 61.8924 54.0239 60.8132 53.4537L45.4594 76.755C44.6563 77.9557 40.8259 84.0164 40.2543 84.4338L30.1074 69.0299C28.3302 66.3815 26.7489 63.8982 24.9877 61.264L19.9126 53.4537C18.7355 53.7663 15.2594 56.4485 14.0716 57.445L11.6231 59.8021C7.32431 64.2819 4.26495 68.8381 2.11022 74.968C1.12367 77.7728 0.00713281 82.5599 0.00713281 86.1799Z" fill="black"/>
<path fill-rule="evenodd" clip-rule="evenodd" d="M21.6613 17.6722C21.6613 23.9123 23.2016 27.7917 27.4025 32.0175C29.7353 34.364 33.0297 36.1012 36.3668 36.8206C42.2362 38.0871 47.9792 36.4689 52.351 32.7937C54.3651 31.1009 53.1167 32.2307 54.6411 30.4952C60.0119 24.383 60.482 15.1659 55.8271 8.24551C55.0115 7.0323 54.78 6.74099 53.7596 5.72674C49.4092 1.39971 45.7016 0 39.3781 0C30.2659 0 21.6613 8.58655 21.6613 17.6722Z" fill="black"/>
<path fill-rule="evenodd" clip-rule="evenodd" d="M32.597 50.8354L34.2103 56.2087C35.1719 58.3953 35.5459 55.6367 34.8478 60.9371C34.6894 62.1486 34.5522 63.2392 34.4116 64.2108C33.8934 67.7776 33.3662 68.7581 34.3848 70.2129C35.35 71.5931 39.7147 78.6467 40.4715 79.1991L43.5772 74.2237C47.299 68.6888 47.0443 70.1543 46.4994 66.4223C46.1504 64.0261 45.7515 59.8181 45.2831 57.8162C45.6731 57.2354 45.8922 57.2531 46.2269 56.5764C46.4674 56.0932 46.6632 55.3241 46.8413 54.7894C47.4895 52.8373 48.8447 50.2013 46.9446 48.5227C46.4175 48.0573 45.7515 47.7802 44.8451 47.7802H35.8771C34.0572 47.7802 32.597 49.0822 32.597 50.8354Z" fill="black"/>
<path fill-rule="evenodd" clip-rule="evenodd" d="M68.702 73.4937L69.4161 72.785C70.8585 71.3551 74.071 71.364 75.5063 72.8027L76.2169 73.515C77.6504 74.9538 77.6415 78.1582 76.199 79.5899C75.0754 80.7036 74.0461 81.535 72.2422 81.3786C70.9582 81.2685 70.0785 80.979 69.0421 79.9665C67.7511 78.7036 67.2649 76.8083 67.7885 75.1705C67.9416 74.6909 68.2266 73.9662 68.7038 73.4937H68.702ZM70.8835 59.2195L71.7703 58.3402C72.2066 57.9903 72.6981 57.8003 73.1539 58.2568C75.3104 60.4221 76.849 62.2303 78.2362 64.7988C79.6163 67.3549 80.3696 68.8647 81.3188 71.7228C81.8156 73.2166 82.0311 74.3446 82.4068 75.7976C82.8467 77.501 82.9588 79.5206 83.1458 81.2277C83.1743 81.4852 83.1565 81.6717 83.1547 81.9382C83.1494 82.583 83.2901 82.876 83.2135 84.0058C83.0835 85.9472 83.0336 84.8726 84.4173 86.7235C87.1508 90.3826 88.6698 93.3064 89.5299 97.66C89.6777 98.4096 90.4292 102.335 89.6688 103.088C88.8941 103.856 88.1142 103.032 87.3377 102.442L82.6757 98.9194C81.8583 98.3368 82.7541 99.8928 81.9028 100.738C81.5396 101.099 80.001 100.959 79.5059 100.957L67.5214 100.921C66.6933 100.92 63.2849 101.11 62.7934 100.616C62.3625 100.184 62.5032 99.4203 62.4515 98.9177C62.4034 98.4452 62.1826 98.7969 61.8283 99.0669L57.6719 102.159C57.2321 102.483 56.3755 103.195 55.9838 103.298C55.722 103.367 55.4032 103.303 55.1433 103.111C54.5253 102.655 54.796 100.555 54.8922 99.8165C55.4193 95.7665 56.4432 92.5941 58.6959 89.0362C59.0823 88.4269 59.4224 87.9669 59.8783 87.3594L61.2299 85.7483C61.9084 84.8619 61.7232 85.3504 61.6448 84.0697C61.57 82.8352 61.7178 82.4195 61.7143 81.5492C61.7089 80.0571 62.2076 77.2612 62.5174 75.7354C62.7436 74.627 63.0249 73.531 63.3953 72.4422C64.3765 69.5592 64.6045 68.8292 66.184 65.7953C67.183 63.8787 68.9656 61.1201 70.8852 59.2177L70.8835 59.2195Z" fill="black"/>
<path fill-rule="evenodd" clip-rule="evenodd" d="M71.9662 111.853C72.1905 112.078 72.4648 112.078 72.6892 111.854C73.0346 111.511 74.4877 108.341 74.8065 107.534C75.0611 106.89 75.4191 106.014 75.4209 105.373C75.4209 105.025 75.3728 104.62 75.2339 104.291C73.8146 100.93 69.2879 102.104 69.2737 105.355C69.2683 106.575 70.7499 109.522 71.3696 110.769C71.4871 111.003 71.8148 111.702 71.9662 111.853Z" fill="black"/>
</g>
<defs>
<clipPath id="clip0_632_1516">
<rect width="90" height="112.021" fill="white"/>
</clipPath>
</defs>
</svg>
