<svg width="51" height="63" viewBox="0 0 51 63" fill="none" xmlns="http://www.w3.org/2000/svg">
<g clip-path="url(#clip0_632_7987)">
<path fill-rule="evenodd" clip-rule="evenodd" d="M0.00399235 48.467C0.00399235 50.3481 -0.121194 50.9464 1.00949 52.6167C1.53527 53.3929 2.22931 53.9314 2.95539 54.4798C4.29138 55.4877 6.2563 56.3658 8.01392 56.9193C14.4355 58.9402 22.3393 59.3857 29.5941 58.4956C29.536 58.4737 29.4789 58.4437 29.4258 58.4037C29.0452 58.121 29.2115 56.8254 29.2706 56.3698C29.5961 53.8694 30.228 51.9104 31.6191 49.7137C31.8574 49.3371 32.0677 49.0534 32.3492 48.6788L33.1844 47.6838C33.604 47.1374 33.4889 47.4381 33.4408 46.6469C33.3947 45.8847 33.4859 45.6279 33.4838 45.0905C33.4798 44.1694 33.7883 42.4422 33.9796 41.5012C34.1188 40.8169 34.2931 40.1396 34.5214 39.4683C35.1273 37.6881 35.2675 37.2376 36.244 35.3635C36.6365 34.6103 37.2244 33.6473 37.9064 32.7432C37.609 32.4815 37.3286 32.2427 37.1143 32.0629C36.6225 31.6483 36.2239 31.3916 35.7112 31.009C35.1573 30.5954 34.8078 30.3827 34.2009 30.062L25.5661 43.1665C25.1144 43.8418 22.9602 47.2502 22.6387 47.485L16.9322 38.8219C15.9327 37.3325 15.0434 35.9359 14.0529 34.4544L11.1987 30.062C10.5367 30.2378 8.58177 31.7462 7.91377 32.3067L6.53672 33.6323C4.11912 36.1517 2.39856 38.7141 1.18675 42.1615C0.631928 43.7389 0.00399235 46.4311 0.00399235 48.467Z" fill="black"/>
<path fill-rule="evenodd" clip-rule="evenodd" d="M12.1821 9.93875C12.1821 13.4481 13.0484 15.6299 15.4109 18.0064C16.7229 19.3261 18.5757 20.3031 20.4524 20.7076C23.7534 21.4199 26.9832 20.5098 29.4418 18.443C30.5745 17.491 29.8725 18.1263 30.7297 17.1503C33.7502 13.7129 34.0146 8.5292 31.3967 4.63722C30.9381 3.95492 30.8079 3.79109 30.234 3.22068C27.7874 0.787188 25.7023 0 22.146 0C17.0213 0 12.1821 4.82902 12.1821 9.93875Z" fill="black"/>
<path fill-rule="evenodd" clip-rule="evenodd" d="M18.3323 28.5895L19.2396 31.6114C19.7804 32.8411 19.9907 31.2897 19.5982 34.2706C19.509 34.9519 19.4319 35.5653 19.3528 36.1117C19.0614 38.1177 18.7649 38.6691 19.3378 39.4873C19.8806 40.2635 22.3352 44.2304 22.7609 44.541L24.5075 41.7429C26.6006 38.6301 26.4574 39.4543 26.1509 37.3555C25.9546 36.0079 25.7303 33.6413 25.4669 32.5155C25.6862 32.1888 25.8094 32.1988 25.9977 31.8182C26.1329 31.5465 26.2431 31.1139 26.3432 30.8132C26.7077 29.7153 27.4699 28.2329 26.4013 27.2888C26.1048 27.0271 25.7303 26.8713 25.2205 26.8713H20.177C19.1535 26.8713 18.3323 27.6035 18.3323 28.5895Z" fill="black"/>
<path fill-rule="evenodd" clip-rule="evenodd" d="M38.6376 41.3324L39.0392 40.9338C39.8504 40.1296 41.6571 40.1346 42.4643 40.9438L42.8639 41.3444C43.6701 42.1535 43.6651 43.9557 42.8539 44.7608C42.2219 45.3872 41.6431 45.8547 40.6286 45.7668C39.9065 45.7049 39.4118 45.542 38.8289 44.9726C38.1028 44.2623 37.8294 43.1964 38.1238 42.2754C38.21 42.0057 38.3702 41.5981 38.6386 41.3324H38.6376ZM39.8644 33.3047L40.3632 32.8102C40.6085 32.6134 40.8849 32.5065 41.1413 32.7632C42.3541 33.981 43.2194 34.9979 43.9996 36.4424C44.7757 37.8799 45.1994 38.7291 45.7332 40.3364C46.0126 41.1765 46.1338 41.8109 46.3451 42.628C46.5925 43.586 46.6555 44.7219 46.7607 45.6819C46.7767 45.8267 46.7667 45.9316 46.7657 46.0815C46.7627 46.4441 46.8418 46.6089 46.7988 47.2443C46.7256 48.3361 46.6976 47.7318 47.4758 48.7727C49.0131 50.8306 49.8673 52.4749 50.351 54.9233C50.4342 55.3449 50.8568 57.5526 50.4292 57.9762C49.9935 58.4078 49.5549 57.9442 49.1182 57.6126L46.4963 55.6316C46.0366 55.304 46.5404 56.1791 46.0617 56.6546C45.8574 56.8574 44.9921 56.7784 44.7137 56.7774L37.9736 56.7575C37.5079 56.7565 35.5911 56.8633 35.3147 56.5856C35.0723 56.3429 35.1514 55.9133 35.1224 55.6306C35.0953 55.3649 34.9711 55.5627 34.7718 55.7145L32.4344 57.4537C32.187 57.6356 31.7053 58.0361 31.485 58.0941C31.3377 58.133 31.1585 58.0971 31.0122 57.9892C30.6647 57.7325 30.817 56.5517 30.871 56.1361C31.1675 53.8584 31.7433 52.0743 33.0102 50.0734C33.2275 49.7307 33.4188 49.472 33.6752 49.1303L34.4353 48.2243C34.8169 47.7258 34.7128 48.0005 34.6687 47.2802C34.6266 46.586 34.7098 46.3522 34.7078 45.8627C34.7047 45.0236 34.9852 43.4512 35.1594 42.5931C35.2866 41.9697 35.4448 41.3533 35.6532 40.741C36.205 39.1197 36.3332 38.7091 37.2215 37.0028C37.7833 35.925 38.7858 34.3736 39.8654 33.3037L39.8644 33.3047Z" fill="black"/>
<path fill-rule="evenodd" clip-rule="evenodd" d="M40.4732 62.9051C40.5994 63.032 40.7537 63.032 40.8799 62.9061C41.0741 62.7133 41.8914 60.9301 42.0706 60.4766C42.2138 60.114 42.4151 59.6215 42.4161 59.2609C42.4161 59.0651 42.3891 58.8373 42.311 58.6525C41.5128 56.7624 38.967 57.4228 38.959 59.2509C38.956 59.9372 39.7892 61.5944 40.1377 62.2957C40.2038 62.4276 40.3881 62.8202 40.4732 62.9051Z" fill="black"/>
</g>
<defs>
<clipPath id="clip0_632_7987">
<rect width="50.6154" height="63" fill="white"/>
</clipPath>
</defs>
</svg>
