<svg width="120" height="120" viewBox="0 0 120 120" fill="none" xmlns="http://www.w3.org/2000/svg">
<path d="M68.7198 13.1679L106.36 37.634C107.69 38.4985 108.355 38.9307 108.837 39.5073C109.263 40.0177 109.584 40.6081 109.779 41.2438C110 41.9621 110 42.7552 110 44.3415V81C110 89.4008 110 93.6012 108.365 96.8099C106.927 99.6323 104.632 101.927 101.81 103.365C98.6012 105 94.4008 105 86 105H34C25.5992 105 21.3988 105 18.1901 103.365C15.3677 101.927 13.073 99.6323 11.6349 96.8099C10 93.6012 10 89.4008 10 81V44.3415C10 42.7552 10 41.9621 10.2209 41.2438C10.4164 40.6081 10.7367 40.0177 11.1632 39.5073C11.6451 38.9307 12.3101 38.4985 13.6401 37.634L51.2802 13.1679M68.7198 13.1679C65.5636 11.1164 63.9855 10.0906 62.2851 9.69147C60.7821 9.33868 59.2179 9.33868 57.7149 9.69147C56.0145 10.0906 54.4364 11.1164 51.2802 13.1679M68.7198 13.1679L104.84 36.6462C106.56 37.764 107.42 38.3229 107.718 39.0316C107.978 39.651 107.978 40.349 107.718 40.9684C107.42 41.6772 106.56 42.236 104.84 43.3538L68.7198 66.8321C65.5636 68.8837 63.9855 69.9095 62.2851 70.3086C60.7821 70.6614 59.2179 70.6614 57.7149 70.3086C56.0145 69.9095 54.4364 68.8837 51.2802 66.8321L15.1597 43.3538C13.44 42.236 12.5802 41.6772 12.2824 40.9684C12.0222 40.349 12.0222 39.651 12.2824 39.0316C12.5802 38.3229 13.44 37.764 15.1597 36.6462L51.2802 13.1679" stroke="black" stroke-width="6" stroke-linecap="round" stroke-linejoin="round"/>
</svg>
