<svg width="98" height="98" viewBox="0 0 98 98" fill="none" xmlns="http://www.w3.org/2000/svg">
<path fill-rule="evenodd" clip-rule="evenodd" d="M0.00688167 80.6052C0.00688167 83.7339 -0.201587 84.7286 1.67627 87.5076C2.54954 88.7995 3.70023 89.6941 4.90508 90.6051C7.12108 92.2811 10.3811 93.742 13.2964 94.6612C27.0717 99.0062 44.9573 98.9734 59.3121 95.4212C60.3217 95.1717 60.9553 94.891 61.8417 94.6859C60.7681 93.0821 56.6644 90.2653 55.0229 83.138C51.0735 65.9877 65.1181 58.2366 65.7189 57.342C64.9703 56.2242 62.7133 54.2856 61.5741 53.3237C60.7583 52.6343 60.0968 52.2075 59.2465 51.5706C58.3272 50.8828 57.7478 50.5282 56.7399 49.9947L42.4147 71.7888C41.6662 72.9115 38.091 78.5812 37.5575 78.9719L28.0894 64.5629C26.4315 62.0859 24.9558 59.7632 23.3127 57.2994L18.5787 49.9931C17.4805 50.2869 14.2369 52.7951 13.1289 53.7258L10.8456 55.932C6.83546 60.1211 3.98092 64.384 1.9701 70.1177C1.05087 72.7408 0.00852315 77.2188 0.00852315 80.6035L0.00688167 80.6052Z" fill="black"/>
<path fill-rule="evenodd" clip-rule="evenodd" d="M73.4716 72.6473C73.4716 73.9539 73.9542 74.6482 74.9506 75.4542C76.9154 77.0448 80.6465 75.2736 83.3024 79.141C86.3671 83.6025 82.3438 88.4892 78.9804 88.5631C78.9804 90.0339 79.225 92.9524 76.3278 91.0122C76.3278 86.9134 76.4246 90.0766 72.6968 86.8888C71.9778 86.2749 71.6348 86.3126 71.6348 85.093C71.6348 84.6613 72.4621 83.2053 74.2086 84.5562C74.8061 85.0175 75.6219 86.1124 77.3488 86.1124C82.4275 86.1124 83.8835 79.2707 76.9433 78.967C72.5031 78.7733 69.317 74.1345 71.3212 70.0865C72.0648 68.5846 74.0494 66.7724 76.1226 66.7264C76.1226 65.213 75.8008 62.081 78.7752 64.0738C78.7752 65.3098 78.9033 65.8039 78.9788 66.7264C80.8977 66.8856 83.6718 68.2826 83.6718 70.4001C83.6718 71.1978 82.3717 71.989 81.308 70.927C81.0897 70.7087 81.3244 70.8663 80.9239 70.4953C78.4584 68.207 73.4683 69.1066 73.4683 72.6456L73.4716 72.6473ZM57.1454 76.3209C57.1454 80.3278 57.2668 82.7112 59.1168 86.3898C61.3508 90.8333 64.3909 93.8241 68.8426 96.0499C73.964 98.6107 81.1406 98.6107 86.262 96.0499C88.7062 94.8287 90.1638 93.8093 91.9908 91.9823C101.8 82.1728 99.3315 65.6036 86.5329 59.1772C76.6741 54.2265 64.4057 58.1776 59.1168 68.6995C58.1828 70.5577 57.1454 73.6371 57.1454 76.3193V76.3209Z" fill="black"/>
<path fill-rule="evenodd" clip-rule="evenodd" d="M20.2103 16.5281C20.2103 22.3652 21.6466 25.9929 25.5665 29.9456C27.7431 32.1403 30.8159 33.7654 33.9298 34.4384C39.4058 35.6235 44.7653 34.1084 48.8427 30.6712C50.7222 29.0871 49.5568 30.1443 50.9783 28.5225C55.9881 22.8068 56.4264 14.1841 52.0847 7.7117C51.323 6.57579 51.108 6.30495 50.1559 5.35617C46.0965 1.30991 42.6379 0 36.7384 0C28.2372 0 20.2086 8.03015 20.2086 16.5298L20.2103 16.5281Z" fill="black"/>
<path fill-rule="evenodd" clip-rule="evenodd" d="M30.4138 47.5456L31.919 52.5702C32.8169 54.6155 33.1649 52.0351 32.5149 56.9924C32.3672 58.125 32.2391 59.146 32.1078 60.0538C31.6236 63.3893 31.1328 64.3068 32.0832 65.6676C32.9844 66.9578 37.0552 73.5566 37.7611 74.0737L40.6583 69.4201C44.13 64.2428 43.892 65.6151 43.3848 62.1237C43.0582 59.8814 42.6872 55.9468 42.2505 54.0738C42.6133 53.5305 42.8185 53.5469 43.132 52.9149C43.3553 52.4619 43.5391 51.7446 43.7049 51.2439C44.3106 49.4169 45.5746 46.9531 43.8017 45.3822C43.3109 44.9472 42.6888 44.6878 41.8435 44.6878H33.4768C31.7779 44.6878 30.4154 45.9058 30.4154 47.544L30.4138 47.5456Z" fill="black"/>
</svg>
