<svg width="153" height="156" viewBox="0 0 153 156" fill="none" xmlns="http://www.w3.org/2000/svg">
<rect x="153" y="44" width="112" height="112" rx="18" transform="rotate(90 153 44)" fill="black"/>
<path d="M94.6336 124.694V117.896C90.8628 117.516 87.9568 116.27 85.9157 114.16C83.9092 112.05 82.906 109.299 82.906 105.909H87.5763C87.5763 106.809 87.732 107.725 88.0433 108.659C88.3547 109.559 88.8563 110.389 89.5482 111.15C90.2747 111.911 91.226 112.534 92.4023 113.018C93.6131 113.503 95.1007 113.745 96.865 113.745C98.4218 113.745 99.771 113.572 100.913 113.226C102.089 112.88 103.04 112.413 103.767 111.825C104.528 111.202 105.099 110.51 105.479 109.749C105.86 108.953 106.05 108.123 106.05 107.258C106.05 105.598 105.375 104.214 104.026 103.107C102.677 102 100.722 101.325 98.1623 101.083L94.7374 100.772C91.4163 100.46 88.7698 99.4744 86.7979 97.8139C84.826 96.1187 83.84 93.6798 83.84 90.4971C83.84 87.5565 84.7914 85.2041 86.6941 83.4397C88.5968 81.6754 91.1741 80.603 94.4261 80.2224V75.0851H98.8888V80.2743C102.141 80.6548 104.683 81.8311 106.517 83.803C108.385 85.7749 109.319 88.4387 109.319 91.7944H104.649C104.649 90.8603 104.493 89.9609 104.182 89.096C103.905 88.1965 103.438 87.4008 102.781 86.7089C102.123 86.017 101.293 85.4635 100.29 85.0484C99.2866 84.5987 98.0758 84.3738 96.6574 84.3738C94.0974 84.3738 92.1082 84.9619 90.6898 86.1381C89.306 87.3144 88.6141 88.7673 88.6141 90.4971C88.6141 92.0193 89.133 93.3166 90.1709 94.389C91.2433 95.4614 92.9039 96.1015 95.1526 96.309L98.5774 96.6204C100.411 96.7933 102.072 97.1566 103.559 97.7101C105.081 98.229 106.379 98.9382 107.451 99.8377C108.523 100.737 109.354 101.81 109.942 103.055C110.53 104.3 110.824 105.702 110.824 107.258C110.824 110.199 109.769 112.62 107.659 114.523C105.583 116.426 102.729 117.55 99.0964 117.896V124.694H94.6336Z" fill="white"/>
<rect width="87" height="87" rx="43.5" fill="#CCF5E6"/>
<path fill-rule="evenodd" clip-rule="evenodd" d="M48.3304 62.6319C48.2873 62.114 48.0069 61.4197 47.862 60.9837L46.3099 56.1843C48.6639 54.9389 50.7602 53.0819 52.8541 51.4687L53.8841 50.5742C54.2572 50.2623 54.487 49.8997 54.8746 49.6401C55.5492 52.5342 56.4803 52.9998 54.2968 56.0876C53.407 57.3464 52.3926 58.3776 51.5209 59.4705C51.2717 59.7824 48.7304 62.5251 48.3306 62.6316L48.3304 62.6319ZM30.8158 40.6903L24.3684 38.6698C24.4783 38.2578 25.0079 37.8859 25.3065 37.5868L27.4242 35.5669C29.0193 34.162 31.9564 31.3558 33.9915 31.3558C35.3801 31.3558 36.2659 31.8708 37.36 32.1257C37.1132 32.494 36.7739 32.7204 36.4708 33.0649C34.3891 35.4283 32.8946 37.4483 31.1818 40.0945C31.0258 40.3359 30.9484 40.4396 30.8158 40.6903ZM62.8619 22.8871C64.2557 22.8871 64.113 22.7444 64.113 24.1382C64.113 28.212 62.3089 33.7126 60.5846 37.1619C60.3408 37.6496 60.1592 38.0233 59.9124 38.5103C59.6685 38.9905 59.3998 39.3901 59.1268 39.8423C57.7533 42.1214 56.8594 43.2381 55.2312 45.1853C55.0525 45.3983 54.8913 45.5159 54.705 45.7172C54.4886 45.9511 54.4554 46.0605 54.2267 46.2981C51.2371 49.4039 46.4273 53.1744 42.427 55.1886C42.1214 55.3423 42.0423 55.4208 41.7548 55.5752C41.2839 55.8289 40.8882 56.0075 40.407 56.2484C39.836 56.5347 39.5434 56.8699 39.0161 56.3579L30.6918 48.0318C30.0476 47.3912 30.5544 46.9983 31.3925 45.3088L33.6651 41.4224C36.4817 37.2324 37.8372 35.451 41.7135 31.8597C43.0741 30.5992 44.8781 29.3446 46.4448 28.3156C46.7014 28.1469 46.8428 28.0625 47.0978 27.9095L49.7742 26.4481C53.4202 24.6248 58.7834 22.8872 62.8619 22.8872V22.8871ZM39.5732 29.9124L36.7489 28.983C35.9988 28.766 34.463 28.3865 33.5662 28.5198C31.1406 28.8794 29.3965 30.225 27.4341 31.823C26.2074 32.8222 24.6029 34.3342 23.4791 35.4708C23.1242 35.8292 22.8332 36.0149 22.4677 36.3839C21.8601 36.9966 21 37.7288 21 38.7658C21 40.8632 23.0194 41.1227 24.4283 41.5928C25.1715 41.8407 28.7831 43.0554 29.276 43.0961C29.1847 44.2001 27.5442 45.5473 27.5442 47.6191C27.5442 49.248 29.0042 50.2827 29.8778 51.1562L35.7962 57.0742C37.9849 59.2629 38.6968 60.2762 41.8189 58.7183C42.225 58.5158 42.4386 58.3848 42.8146 58.1742C43.1184 58.0042 43.5327 57.7551 43.904 57.7243C43.9122 58.0986 45.9245 64.3564 46.1689 64.7934C46.5751 65.5185 47.3672 66.0003 48.1383 66.0003C49.457 66.0003 50.6187 64.6037 51.4386 63.623C51.9117 63.0568 53.4556 61.6019 54.1866 60.6935C55.8772 58.5932 58.063 56.4475 58.4674 53.5173C58.7613 51.3845 57.0876 47.8089 57.0876 47.4271C57.0876 47.2345 57.8442 46.4523 58.0204 46.2422L60.7254 42.5963C64.1652 37.4371 67 29.7343 67 23.3684C67 22.4349 66.5501 21.5114 66.066 21.0306C65.4922 20.4615 64.4796 20 63.7276 20C61.1206 20 58.4685 20.5202 56.2786 21.0196C51.2837 22.1585 45.3273 25.2376 41.3874 28.4547L40.2329 29.4172C40.0467 29.5685 39.8447 29.9124 39.5729 29.9124H39.5732Z" fill="black"/>
<path fill-rule="evenodd" clip-rule="evenodd" d="M52.4689 37.6111C49.2269 37.6111 48.1293 33.233 51.216 31.8352C53.6946 30.712 56.2627 33.361 55.1651 35.7843C54.6699 36.8778 53.5735 37.6111 52.4689 37.6111ZM46.5987 34.0501V35.0126C46.5987 37.7164 49.2839 40.4014 51.9876 40.4014C53.3435 40.4014 53.7276 40.445 55.0352 39.7928C58.4945 38.0667 59.3353 33.4877 56.6804 30.6084C54.2939 28.0198 49.176 28.047 47.1753 32.0289C46.9292 32.519 46.5986 33.3209 46.5986 34.0501H46.5987Z" fill="black"/>
<path fill-rule="evenodd" clip-rule="evenodd" d="M22.9246 62.6318C22.9246 63.4536 23.5467 64.0756 24.3684 64.0756C27.0267 64.0756 30.8258 63.2068 33.1908 62.0236C33.9323 61.6524 35.0503 61.256 35.0503 60.226C35.0503 59.5172 34.4369 58.7827 33.703 58.7827C33.1291 58.7827 32.3679 59.257 31.9077 59.4886C30.4465 60.226 27.5168 61.0919 25.9083 61.0919C25.9083 59.509 26.769 56.5666 27.4796 55.1576C27.7148 54.6915 28.2175 53.8727 28.2175 53.2972C28.2175 52.6041 27.479 51.95 26.7742 51.95C25.7575 51.95 25.3764 53.0173 25.0091 53.7453C23.8249 56.0953 22.9246 59.8029 22.9246 62.6317V62.6318Z" fill="black"/>
</svg>
