<svg width="8" height="8" viewBox="0 0 8 8" fill="none" xmlns="http://www.w3.org/2000/svg">
<g clip-path="url(#clip0_944_2824)">
<path d="M3.22203 4.12487C3.35131 4.29771 3.51626 4.44073 3.70569 4.54422C3.89511 4.64771 4.10457 4.70925 4.31987 4.72467C4.53517 4.74009 4.75127 4.70903 4.9535 4.63359C5.15574 4.55815 5.33939 4.4401 5.49199 4.28744L6.39516 3.38427C6.66936 3.10037 6.82108 2.72013 6.81765 2.32545C6.81422 1.93077 6.65591 1.55323 6.37682 1.27414C6.09773 0.995047 5.72019 0.836739 5.32551 0.833309C4.93083 0.829879 4.55059 0.981603 4.26669 1.2558L3.74887 1.77061M4.42625 3.52276C4.29696 3.34991 4.13201 3.20689 3.94259 3.1034C3.75317 2.99991 3.5437 2.93837 3.3284 2.92295C3.11311 2.90753 2.89701 2.9386 2.69477 3.01404C2.49253 3.08948 2.30889 3.20753 2.15629 3.36019L1.25312 4.26336C0.978918 4.54725 0.827194 4.92749 0.830623 5.32217C0.834053 5.71685 0.992362 6.0944 1.27145 6.37349C1.55054 6.65258 1.92809 6.81089 2.32277 6.81432C2.71745 6.81775 3.09769 6.66602 3.38159 6.39182L3.89639 5.87702" stroke="black" stroke-width="0.561972" stroke-linecap="round" stroke-linejoin="round"/>
</g>
<defs>
<clipPath id="clip0_944_2824">
<rect width="7.22535" height="7.22535" fill="white" transform="translate(0.211426 0.211304)"/>
</clipPath>
</defs>
</svg>
