<svg width="32" height="37" viewBox="0 0 32 37" fill="none" xmlns="http://www.w3.org/2000/svg">
<path fill-rule="evenodd" clip-rule="evenodd" d="M14.2287 3.18207C12.0275 3.69425 11.2609 3.8907 9.37613 5.20271C8.64472 5.71488 7.80079 6.54278 7.25224 7.27947C2.39965 13.7974 7.56168 18.4351 2.6036 24.7566C1.52055 26.1387 0.550036 26.1878 0.346086 27.998C0.191366 29.303 1.43616 30.8606 2.99743 30.8606H28.6388C30.1649 30.8606 31.4027 29.3731 31.3042 28.0611C31.1073 25.5774 28.5192 25.7178 27.1127 21.1854C25.7483 16.7722 28.2942 12.5275 24.391 7.27947C24.2785 7.13213 24.2222 7.04794 24.0957 6.92165C23.3221 6.1148 23.3291 6.00254 22.3093 5.23779C22.028 5.02731 21.803 4.8519 21.4935 4.6765C19.6228 3.63812 19.4751 3.65917 17.4146 3.18207C17.4146 1.65958 17.6396 0.00378418 15.6775 0.00378418C15.0375 0.00378418 14.5311 0.501927 14.3483 0.993053C14.1514 1.52628 14.2287 2.48748 14.2287 3.18207Z" fill="#BCBCBC"/>
<path fill-rule="evenodd" clip-rule="evenodd" d="M15.5298 36.9998C17.4146 36.9998 18.3429 36.628 19.6721 35.5685C20.0659 35.2528 20.5652 34.6214 20.8184 34.1794C21.4092 33.162 21.3248 32.8393 21.5428 32.3762H10.1005C10.4029 33.0077 10.5295 34.3548 11.9361 35.5335C12.7589 36.221 14.067 36.9998 15.5368 36.9998H15.5298Z" fill="#BCBCBC"/>
</svg>
