<svg width="14" height="13" viewBox="0 0 14 13" fill="none" xmlns="http://www.w3.org/2000/svg">
<path d="M11.7386 6.5C11.7386 9.19239 9.55602 11.375 6.86364 11.375C6.21518 11.375 5.5963 11.2484 5.03036 11.0186C4.92205 10.9746 4.86789 10.9526 4.82411 10.9428C4.78129 10.9332 4.74959 10.9296 4.70571 10.9296C4.66084 10.9296 4.61197 10.9378 4.51424 10.9541L2.58705 11.2753C2.38523 11.3089 2.28433 11.3257 2.21136 11.2944C2.1475 11.267 2.09661 11.2161 2.06921 11.1523C2.03792 11.0793 2.05474 10.9784 2.08837 10.7766L2.40957 8.8494C2.42586 8.75166 2.434 8.70279 2.434 8.65793C2.43399 8.61404 2.43048 8.58235 2.42088 8.53953C2.41107 8.49575 2.38908 8.44159 2.34509 8.33328C2.11524 7.76734 1.98864 7.14845 1.98864 6.5C1.98864 3.80761 4.17125 1.625 6.86364 1.625C9.55602 1.625 11.7386 3.80761 11.7386 6.5Z" stroke="#868686" stroke-width="1.18182" stroke-linecap="round" stroke-linejoin="round"/>
</svg>
