<svg width="12" height="13" viewBox="0 0 12 13" fill="none" xmlns="http://www.w3.org/2000/svg">
<path d="M8.46842 3.24992V2.81659C8.46842 2.20986 8.46842 1.9065 8.35035 1.67476C8.24649 1.47092 8.08076 1.30519 7.87691 1.20133C7.64518 1.08325 7.34181 1.08325 6.73509 1.08325H5.86842C5.2617 1.08325 4.95834 1.08325 4.7266 1.20133C4.52276 1.30519 4.35703 1.47092 4.25317 1.67476C4.13509 1.9065 4.13509 2.20986 4.13509 2.81659V3.24992M5.21842 6.22908V8.93742M7.38509 6.22908V8.93742M1.42676 3.24992H11.1768M10.0934 3.24992V9.31658C10.0934 10.2267 10.0934 10.6817 9.91631 11.0293C9.76052 11.3351 9.51192 11.5837 9.20616 11.7395C8.85855 11.9166 8.40351 11.9166 7.49342 11.9166H5.11009C4.20001 11.9166 3.74496 11.9166 3.39736 11.7395C3.09159 11.5837 2.843 11.3351 2.68721 11.0293C2.51009 10.6817 2.51009 10.2267 2.51009 9.31658V3.24992" stroke="#808080" stroke-linecap="round" stroke-linejoin="round"/>
</svg>
