<svg width="26" height="26" viewBox="0 0 26 26" fill="none" xmlns="http://www.w3.org/2000/svg">
<path d="M0.149414 12.6654C0.149414 5.63787 5.81341 0.0263141 12.841 9.06805e-05C19.8685 -0.0261312 25.5325 5.63787 25.5325 12.6654C25.5325 19.2996 20.4979 24.7276 13.9947 25.3308V16.4939H17.1676L17.6396 12.613H13.9947V10.8299C13.9947 10.253 14.0472 9.85965 14.1521 9.64987C14.4143 9.30898 14.8339 9.12543 15.4632 9.12543H17.4823V5.34943H13.9947C13.2605 5.34943 12.5001 5.45431 11.7921 5.74276C10.2187 6.34587 9.40586 7.86676 9.40586 10.2792V12.613H7.12453V16.4939H9.40586V24.9112C4.08275 23.4165 0.149414 18.4868 0.149414 12.6654Z" fill="black"/>
</svg>
