<svg width="29" height="29" viewBox="0 0 29 29" fill="none" xmlns="http://www.w3.org/2000/svg">
<path fill-rule="evenodd" clip-rule="evenodd" d="M0.00132243 14.1143C0.00132243 15.0612 0.0899254 15.5181 0.798749 16.2289C1.1968 16.6283 1.78132 16.9873 2.57808 16.9694C3.28624 16.9536 3.08127 16.9073 3.08127 18.9862C3.08127 20.5129 2.96952 25.6777 3.18045 26.448C3.50907 27.6487 4.72703 28.6756 5.99326 28.6756H10.754C11.8245 28.6756 11.5944 27.371 11.5944 26.7713L11.5931 21.2812C11.5885 20.3681 12.1459 19.7142 12.8263 19.7142H15.8507C16.2401 19.7142 16.5377 19.9614 16.7347 20.1744C16.9688 20.4263 17.0852 20.7483 17.0845 21.2244C17.0838 22.0277 17.0131 27.7334 17.1142 28.0838C17.2095 28.4144 17.5183 28.6756 17.9229 28.6756H22.6837C23.4077 28.6756 24.0934 28.3166 24.4908 27.9622C25.8152 26.7812 25.5963 25.8602 25.5963 24.0273V17.7543C25.595 17.0435 25.4152 16.9542 26.0995 16.9694C27.5621 17.0018 28.5943 15.7733 28.6763 14.4667V14.1315C28.6492 13.7057 28.5176 13.2832 28.263 12.903C27.898 12.3581 18.1524 2.72223 16.7889 1.35814C15.7865 0.355734 15.5756 0 14.1143 0C13.096 0 12.4467 0.79941 11.9158 1.33037L1.33037 11.9158C0.79941 12.4467 0 13.0954 0 14.1143H0.00132243Z" fill="#BCBCBC"/>
</svg>
