<svg width="26" height="26" viewBox="0 0 26 26" fill="none" xmlns="http://www.w3.org/2000/svg">
<path d="M0.383301 12.6395C0.383301 5.61192 6.0473 0.000361268 13.0749 0.000361268C20.1024 -0.0520825 25.7664 5.61192 25.7664 12.6395C25.7664 19.667 20.1024 25.331 13.0749 25.331C6.0473 25.331 0.383301 19.667 0.383301 12.6395ZM5.20819 12.587C5.20819 13.1901 5.23441 13.767 5.23441 14.3701C5.23441 14.9733 5.28686 15.5501 5.31308 16.127C5.39175 17.3595 5.83752 18.3559 6.62419 19.1426C7.43708 19.9817 8.43352 20.3488 9.63974 20.4275C10.1904 20.4537 10.7935 20.4799 11.3704 20.4799H13.1011C13.6517 20.4799 14.2286 20.5324 14.8317 20.4799C15.4086 20.4537 16.0117 20.4537 16.5886 20.4275C17.7949 20.3488 18.7913 19.9817 19.5517 19.1426C20.3909 18.3559 20.8104 17.3595 20.8629 16.127C20.9153 14.9995 20.9415 13.8195 20.9415 12.6395C20.9415 11.4595 20.8891 10.2795 20.8629 9.15192C20.8366 7.94569 20.3909 6.92303 19.5517 6.13636C18.8437 5.3497 17.8473 4.93014 16.5886 4.8777C15.9593 4.85147 15.3824 4.82525 14.7793 4.82525H11.318C10.7149 4.82525 10.138 4.8777 9.56108 4.8777C8.35486 4.93014 7.35841 5.3497 6.62419 6.11014C5.83752 6.89681 5.39175 7.86703 5.31308 9.09947C5.28686 9.62392 5.28686 10.227 5.23441 10.8301C5.20819 11.3808 5.20819 11.9839 5.20819 12.587ZM6.62419 12.6133C6.62419 11.3284 6.65041 10.2008 6.72908 9.15192C6.78152 8.33903 7.06997 7.73592 7.59441 7.10658C8.09263 6.60836 8.77441 6.37236 9.63974 6.26747C10.138 6.24125 10.7149 6.2937 11.2655 6.24125C11.8686 6.21503 12.4455 6.21503 13.0486 6.21503C13.6517 6.21503 14.2286 6.24125 14.8055 6.24125C15.4086 6.24125 15.9593 6.24125 16.4837 6.26747C17.3753 6.34614 18.0571 6.60836 18.5815 7.15903C19.1322 7.68347 19.3682 8.36525 19.4469 9.23059C19.4993 10.2533 19.5255 11.3808 19.5255 12.6395C19.5255 13.8457 19.4731 14.9995 19.4469 16.1008C19.4206 16.9661 19.1584 17.5955 18.5815 18.1461C18.0571 18.6706 17.3753 18.9328 16.4837 19.0115C15.9593 19.0639 15.4086 19.0901 14.8317 19.0901C14.2811 19.0901 13.7042 19.0901 13.1011 19.0901C12.498 19.0901 11.9211 19.0901 11.3704 19.0901C10.7673 19.0901 10.1904 19.0639 9.66597 19.0115C8.8793 18.959 8.1713 18.6706 7.62063 18.1461C7.04375 17.5955 6.78152 16.8875 6.72908 16.0484C6.65041 15.0781 6.62419 13.8719 6.62419 12.6133ZM9.06286 12.6919C9.06286 13.767 9.50863 14.6586 10.2691 15.4977C11.0033 16.2844 11.9211 16.7039 13.0749 16.7039C14.2286 16.7039 15.094 16.2844 15.8806 15.4977C16.6411 14.7373 17.0869 13.767 17.0869 12.6919C17.0869 11.5644 16.6411 10.5941 15.8806 9.8337C15.0677 9.02081 14.1762 8.62747 13.0749 8.62747C11.9735 8.62747 11.082 9.02081 10.2691 9.8337C9.50863 10.5941 9.06286 11.5644 9.06286 12.6919ZM10.5051 12.6919C10.5051 11.9315 10.7411 11.3284 11.2393 10.8039C11.7637 10.3057 12.3931 10.0435 13.0749 10.0435C13.7566 10.0435 14.386 10.3057 14.9104 10.8039C15.4086 11.3284 15.6446 11.9315 15.6446 12.6919C15.6446 13.3999 15.4086 14.003 14.9104 14.475C14.386 15.0519 13.7566 15.2617 13.0749 15.2617C12.3931 15.2617 11.7637 15.0519 11.2393 14.475C10.7411 14.003 10.5051 13.3999 10.5051 12.6919ZM16.1953 8.62747C16.1953 9.23059 16.51 9.54525 17.1131 9.54525C17.7686 9.54525 18.0571 9.23059 18.0571 8.62747C18.0571 7.97192 17.7686 7.7097 17.1131 7.7097C16.51 7.7097 16.1953 7.97192 16.1953 8.62747Z" fill="black"/>
</svg>
