<svg width="27" height="26" viewBox="0 0 27 26" fill="none" xmlns="http://www.w3.org/2000/svg">
<path d="M10.075 6.63458C10.0226 6.21503 9.89145 5.87414 9.57678 5.53325C9.26211 5.2448 8.895 5.08747 8.37056 5.08747C7.84611 5.08747 7.45278 5.2448 7.13811 5.53325C6.82345 5.87414 6.63989 6.21503 6.69234 6.63458C6.63989 7.02792 6.87589 7.39503 7.13811 7.70969C7.40034 7.99814 7.79367 8.20792 8.31811 8.20792C8.84256 8.20792 9.26211 8.05058 9.57678 7.70969C9.89145 7.42125 10.075 7.02792 10.075 6.63458ZM6.82345 18.2248H9.86522V9.36169H6.82345V18.2248ZM11.4648 9.36169V18.3297H14.5066V13.295C14.5066 12.9804 14.5328 12.7706 14.6114 12.587C14.9261 11.8004 15.4768 11.4332 16.3159 11.5119C17.155 11.5906 17.5746 12.2461 17.5746 13.4786V18.3297H20.5377V13.1377C20.5377 11.9577 20.3279 11.0137 19.7772 10.3844C19.2528 9.80747 18.6497 9.36169 17.9679 9.20436C17.2861 9.07325 16.6043 9.15192 15.9226 9.36169C15.2408 9.62392 14.7688 10.0435 14.4279 10.6204H14.4017V9.36169H11.4648ZM0.766113 12.6657C0.766113 5.63814 6.43011 0.0265831 13.4577 0.00035962C20.4852 -0.0520841 26.1492 5.63814 26.1492 12.6657C26.1492 19.667 20.4852 25.3573 13.4577 25.3573C6.43011 25.3573 0.766113 19.667 0.766113 12.6657Z" fill="black"/>
</svg>
