<svg width="35" height="28" viewBox="0 0 35 28" fill="none" xmlns="http://www.w3.org/2000/svg">
<g clip-path="url(#clip0_149_1910)">
<path fill-rule="evenodd" clip-rule="evenodd" d="M25.9253 2.25482C25.9253 3.50661 26.6655 3.94582 27.3153 4.76354C31.1714 9.61126 31.3782 16.6437 27.7572 21.7516L26.9171 22.8522C26.5489 23.2739 25.9263 23.7584 25.9263 24.788C25.9263 25.5111 26.1954 26.0285 26.545 26.407C27.4464 27.3831 28.7635 27.379 29.7018 26.37C32.6575 23.1927 34.6515 18.6155 34.6515 14.0547V13.0591C34.6515 9.10931 33.0877 5.25315 31.3336 2.78249C30.2525 1.25916 28.9073 -0.786699 27.0433 0.310801C26.4945 0.633776 25.9244 1.40727 25.9244 2.2538L25.9253 2.25482Z" fill="#BCBCBC"/>
<path fill-rule="evenodd" clip-rule="evenodd" d="M0.283875 13.2012C0.283875 15.3304 0.408201 16.3775 0.860829 18.2773C1.1901 19.6638 1.64176 20.7665 2.18569 21.9205C2.45765 22.4976 2.72476 22.982 3.04918 23.4943C3.58534 24.3408 4.9607 26.3887 5.85333 26.8516C6.75956 27.3206 7.65996 27.1715 8.32433 26.4792C9.15771 25.6101 9.2393 24.2811 8.5215 23.3863C8.37095 23.198 8.21651 23.0684 8.05236 22.8884C4.43911 18.913 3.49792 12.4329 6.05633 7.23031C6.48468 6.3591 6.99073 5.6288 7.53369 4.88513C7.69201 4.66707 7.81051 4.5745 7.98826 4.37084C8.52345 3.75883 9.01104 3.22706 9.01104 2.25504C9.01104 0.554794 7.10923 -0.630135 5.68335 0.365535C5.11903 0.759483 4.00688 2.18407 3.60282 2.78271C1.63496 5.68846 0.285817 9.38725 0.285817 13.2023L0.283875 13.2012Z" fill="#BCBCBC"/>
<path fill-rule="evenodd" clip-rule="evenodd" d="M11.6948 21.7318C12.3922 21.7318 12.8788 21.6567 13.4256 21.0776C14.2347 20.2208 14.26 18.7684 13.4907 17.9106C11.1868 15.3433 11.1703 11.7082 13.4577 9.24067C14.5999 8.00842 14.1143 5.38245 11.7618 5.38245C10.4262 5.38245 9.27524 7.32853 8.67012 8.43528C8.29519 9.12135 8.031 9.85165 7.79303 10.7054C7.6687 11.1497 7.46861 12.1948 7.46473 12.7029C7.46182 13.0876 7.41325 13.2182 7.39965 13.4918C7.37537 13.9783 7.62888 15.8113 7.76098 16.2998C8.14756 17.7244 8.6808 18.8734 9.48796 20.0151C9.97069 20.697 10.7846 21.7308 11.6938 21.7308L11.6948 21.7318Z" fill="#BCBCBC"/>
<path fill-rule="evenodd" clip-rule="evenodd" d="M20.8911 7.44429C20.8911 9.16099 21.5088 8.97996 22.315 10.3439C23.7428 12.761 23.3533 15.856 21.4777 17.8752C20.6851 18.7279 20.6881 20.1771 21.4758 21.0422C22.5219 22.1901 24.0692 21.8764 25.0531 20.5248C26.3644 18.7217 27.4386 16.7365 27.4687 14.3399C27.4736 13.9491 27.5406 13.9038 27.5406 13.5582C27.5406 13.2126 27.4775 13.2085 27.4687 12.8485C27.46 12.4988 27.4512 12.3897 27.4143 12.1243C27.2133 10.6648 26.7645 9.18054 26.0205 7.98429L25.0531 6.59262C24.4723 5.79341 23.9565 5.38403 22.9046 5.38403C21.8274 5.38403 20.8911 6.50416 20.8911 7.44532V7.44429Z" fill="#BCBCBC"/>
<path fill-rule="evenodd" clip-rule="evenodd" d="M14.5815 13.5584C14.5815 15.2216 15.8976 16.6154 17.4682 16.6154C19.0388 16.6154 20.3549 15.2216 20.3549 13.5584C20.3549 11.8952 19.0388 10.5015 17.4682 10.5015C15.8976 10.5015 14.5815 11.8952 14.5815 13.5584Z" fill="#BCBCBC"/>
</g>
<defs>
<clipPath id="clip0_149_1910">
<rect width="34.3676" height="27.1324" fill="white" transform="translate(0.283875)"/>
</clipPath>
</defs>
</svg>
