<svg width="48" height="31" viewBox="0 0 48 31" fill="none" xmlns="http://www.w3.org/2000/svg">
<g clip-path="url(#clip0_16_621)">
<path fill-rule="evenodd" clip-rule="evenodd" d="M25.9253 2.25482C25.9253 3.50661 26.6655 3.94582 27.3153 4.76354C31.1714 9.61126 31.3782 16.6437 27.7572 21.7516L26.9171 22.8522C26.5489 23.2739 25.9263 23.7584 25.9263 24.788C25.9263 25.5111 26.1954 26.0285 26.545 26.407C27.4464 27.3831 28.7635 27.379 29.7018 26.37C32.6575 23.1927 34.6515 18.6155 34.6515 14.0547V13.0591C34.6515 9.10931 33.0877 5.25315 31.3336 2.78249C30.2525 1.25916 28.9073 -0.786699 27.0433 0.310801C26.4945 0.633776 25.9244 1.40727 25.9244 2.2538L25.9253 2.25482Z" fill="#BCBCBC"/>
<path fill-rule="evenodd" clip-rule="evenodd" d="M0.283875 13.2012C0.283875 15.3304 0.408201 16.3775 0.860829 18.2773C1.1901 19.6638 1.64176 20.7665 2.18569 21.9205C2.45765 22.4976 2.72476 22.982 3.04918 23.4943C3.58534 24.3408 4.9607 26.3887 5.85333 26.8516C6.75956 27.3206 7.65996 27.1715 8.32433 26.4792C9.15771 25.6101 9.2393 24.2811 8.5215 23.3863C8.37095 23.198 8.21651 23.0684 8.05236 22.8884C4.43911 18.913 3.49792 12.4329 6.05633 7.23031C6.48468 6.3591 6.99073 5.6288 7.53369 4.88513C7.69201 4.66707 7.81051 4.5745 7.98826 4.37084C8.52345 3.75883 9.01104 3.22706 9.01104 2.25504C9.01104 0.554794 7.10923 -0.630135 5.68335 0.365535C5.11903 0.759483 4.00688 2.18407 3.60282 2.78271C1.63496 5.68846 0.285817 9.38725 0.285817 13.2023L0.283875 13.2012Z" fill="#BCBCBC"/>
<path fill-rule="evenodd" clip-rule="evenodd" d="M11.6948 21.7318C12.3922 21.7318 12.8788 21.6567 13.4256 21.0776C14.2347 20.2208 14.26 18.7684 13.4907 17.9106C11.1868 15.3433 11.1703 11.7082 13.4577 9.24067C14.5999 8.00842 14.1143 5.38245 11.7618 5.38245C10.4262 5.38245 9.27524 7.32853 8.67012 8.43528C8.29519 9.12135 8.031 9.85165 7.79303 10.7054C7.6687 11.1497 7.46861 12.1948 7.46473 12.7029C7.46182 13.0876 7.41325 13.2182 7.39965 13.4918C7.37537 13.9783 7.62888 15.8113 7.76098 16.2998C8.14756 17.7244 8.6808 18.8734 9.48796 20.0151C9.97069 20.697 10.7846 21.7308 11.6938 21.7308L11.6948 21.7318Z" fill="#BCBCBC"/>
<path fill-rule="evenodd" clip-rule="evenodd" d="M20.8911 7.44429C20.8911 9.16099 21.5088 8.97996 22.315 10.3439C23.7428 12.761 23.3533 15.856 21.4777 17.8752C20.6851 18.7279 20.6881 20.1771 21.4758 21.0422C22.5219 22.1901 24.0692 21.8764 25.0531 20.5248C26.3644 18.7217 27.4386 16.7365 27.4687 14.3399C27.4736 13.9491 27.5406 13.9038 27.5406 13.5582C27.5406 13.2126 27.4775 13.2085 27.4687 12.8485C27.46 12.4988 27.4512 12.3897 27.4143 12.1243C27.2133 10.6648 26.7645 9.18054 26.0205 7.98429L25.0531 6.59262C24.4723 5.79341 23.9565 5.38403 22.9046 5.38403C21.8274 5.38403 20.8911 6.50416 20.8911 7.44532V7.44429Z" fill="#BCBCBC"/>
<path fill-rule="evenodd" clip-rule="evenodd" d="M14.5815 13.5584C14.5815 15.2216 15.8976 16.6154 17.4682 16.6154C19.0388 16.6154 20.3549 15.2216 20.3549 13.5584C20.3549 11.8952 19.0388 10.5015 17.4682 10.5015C15.8976 10.5015 14.5815 11.8952 14.5815 13.5584Z" fill="#BCBCBC"/>
</g>
<circle cx="37.3648" cy="20.8006" r="9.94853" fill="#F4F4F4"/>
<path fill-rule="evenodd" clip-rule="evenodd" d="M35.7307 18.8633C35.7307 19.3833 35.9231 19.6596 36.3201 19.9803C37.103 20.6132 38.5898 19.9084 39.6481 21.4473C40.8693 23.2227 39.2662 25.1672 37.9259 25.1966C37.9259 25.7818 38.0234 26.9432 36.8689 26.1711C36.8689 24.5401 36.9075 25.7988 35.422 24.5303C35.1355 24.286 34.9988 24.3011 34.9988 23.8157C34.9988 23.644 35.3285 23.0646 36.0244 23.6022C36.2625 23.7857 36.5876 24.2214 37.2757 24.2214C39.2995 24.2214 39.8797 21.4989 37.1142 21.3781C35.3448 21.301 34.0752 19.4551 34.8739 17.8444C35.1702 17.2467 35.961 16.5256 36.7871 16.5073C36.7871 15.9051 36.6589 14.6588 37.8441 15.4518C37.8441 15.9436 37.8952 16.1402 37.9253 16.5073C38.6899 16.5707 39.7953 17.1265 39.7953 17.9691C39.7953 18.2866 39.2773 18.6014 38.8534 18.1788C38.7664 18.0919 38.86 18.1546 38.7004 18.007C37.7179 17.0965 35.7294 17.4544 35.7294 18.8627L35.7307 18.8633ZM29.2251 20.3252C29.2251 21.9196 29.2735 22.868 30.0107 24.3318C30.9009 26.0999 32.1123 27.29 33.8862 28.1757C35.927 29.1947 38.7867 29.1947 40.8275 28.1757C41.8014 27.6897 42.3823 27.2841 43.1103 26.5571C47.0192 22.6537 46.0354 16.0605 40.9354 13.5033C37.0069 11.5334 32.1182 13.1056 30.0107 17.2924C29.6385 18.0318 29.2251 19.2572 29.2251 20.3245V20.3252Z" fill="#BCBCBC"/>
<defs>
<clipPath id="clip0_16_621">
<rect width="34.3676" height="27.1324" fill="white" transform="translate(0.283875)"/>
</clipPath>
</defs>
</svg>
