<svg width="24" height="18" viewBox="0 0 24 18" fill="none" xmlns="http://www.w3.org/2000/svg">
<path fill-rule="evenodd" clip-rule="evenodd" d="M11.9631 1.70524C11.9631 2.28925 12.3084 2.49416 12.6115 2.87566C14.4106 5.13733 14.5071 8.41827 12.8177 10.8013L12.4257 11.3148C12.254 11.5116 11.9635 11.7376 11.9635 12.218C11.9635 12.5553 12.089 12.7967 12.2522 12.9733C12.6727 13.4287 13.2872 13.4268 13.7249 12.956C15.1039 11.4737 16.0342 9.3382 16.0342 7.21041V6.74589C16.0342 4.90315 15.3046 3.10408 14.4862 1.95142C13.9819 1.24071 13.3543 0.286234 12.4847 0.798265C12.2286 0.948947 11.9626 1.30982 11.9626 1.70476L11.9631 1.70524Z" fill="white"/>
<path fill-rule="evenodd" clip-rule="evenodd" d="M0 6.81275C0 7.8061 0.0580039 8.29462 0.269174 9.18096C0.422794 9.82783 0.633511 10.3423 0.887278 10.8807C1.01416 11.1499 1.13878 11.3759 1.29013 11.6149C1.54028 12.0098 2.18194 12.9653 2.59839 13.1812C3.02119 13.4001 3.44126 13.3305 3.75122 13.0075C4.14003 12.602 4.17809 11.982 3.84321 11.5645C3.77297 11.4767 3.70092 11.4162 3.62434 11.3323C1.9386 9.47752 1.49949 6.45428 2.6931 4.02705C2.89294 3.62059 3.12904 3.27988 3.38235 2.93293C3.45622 2.83119 3.5115 2.788 3.59443 2.69299C3.84412 2.40746 4.0716 2.15936 4.0716 1.70588C4.0716 0.912636 3.18432 0.359815 2.51909 0.824339C2.25581 1.00813 1.73695 1.67277 1.54843 1.95205C0.630339 3.30771 0.000906311 5.03336 0.000906311 6.81323L0 6.81275Z" fill="white"/>
<path fill-rule="evenodd" clip-rule="evenodd" d="M5.32404 10.792C5.64941 10.792 5.87644 10.757 6.13156 10.4868C6.50904 10.087 6.52082 9.40946 6.16192 9.00924C5.08704 7.81146 5.07934 6.11556 6.14652 4.96433C6.67943 4.38944 6.45285 3.16431 5.35531 3.16431C4.73222 3.16431 4.19523 4.07224 3.91291 4.58859C3.738 4.90867 3.61474 5.24938 3.50371 5.64768C3.44571 5.85499 3.35236 6.34255 3.35055 6.57961C3.34919 6.75908 3.32653 6.82003 3.32019 6.94768C3.30886 7.17466 3.42713 8.0298 3.48876 8.25775C3.66912 8.92238 3.9179 9.4584 4.29447 9.99107C4.51969 10.3092 4.89943 10.7915 5.32359 10.7915L5.32404 10.792Z" fill="white"/>
<path fill-rule="evenodd" clip-rule="evenodd" d="M9.61404 4.12624C9.61404 4.92716 9.90225 4.8427 10.2784 5.47902C10.9445 6.60673 10.7628 8.05069 9.88774 8.99269C9.51797 9.39051 9.51933 10.0667 9.88684 10.4702C10.3749 11.0058 11.0968 10.8594 11.5558 10.2289C12.1676 9.38763 12.6688 8.46147 12.6828 7.34335C12.6851 7.16099 12.7163 7.13988 12.7163 6.97864C12.7163 6.8174 12.6869 6.81548 12.6828 6.64752C12.6787 6.48436 12.6747 6.4335 12.6574 6.30969C12.5636 5.62874 12.3543 4.93627 12.0072 4.37817L11.5558 3.7289C11.2848 3.35603 11.0442 3.16504 10.5534 3.16504C10.0509 3.16504 9.61404 3.68763 9.61404 4.12672V4.12624Z" fill="white"/>
<path fill-rule="evenodd" clip-rule="evenodd" d="M6.67059 6.97894C6.67059 7.7549 7.28462 8.40514 8.01737 8.40514C8.75012 8.40514 9.36415 7.7549 9.36415 6.97894C9.36415 6.20297 8.75012 5.55273 8.01737 5.55273C7.28462 5.55273 6.67059 6.20297 6.67059 6.97894Z" fill="white"/>
<circle cx="17.2989" cy="10.3587" r="4.64142" fill="#808080"/>
<path fill-rule="evenodd" clip-rule="evenodd" d="M16.537 9.45492C16.537 9.69749 16.6267 9.82639 16.812 9.97602C17.1772 10.2713 17.8709 9.9425 18.3646 10.6605C18.9344 11.4887 18.1864 12.3959 17.5611 12.4096C17.5611 12.6827 17.6066 13.2245 17.068 12.8643C17.068 12.1034 17.086 12.6906 16.393 12.0988C16.2593 11.9848 16.1955 11.9918 16.1955 11.7654C16.1955 11.6853 16.3493 11.415 16.674 11.6658C16.7851 11.7514 16.9368 11.9547 17.2578 11.9547C18.202 11.9547 18.4727 10.6845 17.1824 10.6282C16.357 10.5922 15.7646 9.73101 16.1372 8.97953C16.2755 8.7007 16.6444 8.36427 17.0298 8.35573C17.0298 8.07477 16.97 7.49333 17.523 7.86328C17.523 8.09275 17.5468 8.18447 17.5608 8.35573C17.9176 8.38529 18.4333 8.64462 18.4333 9.03773C18.4333 9.18584 18.1916 9.33272 17.9939 9.13555C17.9533 9.09502 17.9969 9.12428 17.9225 9.05541C17.4641 8.63061 16.5364 8.7976 16.5364 9.45461L16.537 9.45492ZM13.5018 10.1369C13.5018 10.8808 13.5244 11.3233 13.8683 12.0062C14.2837 12.8311 14.8488 13.3863 15.6764 13.7995C16.6286 14.2749 17.9627 14.2749 18.9149 13.7995C19.3692 13.5728 19.6402 13.3836 19.9799 13.0444C21.8036 11.2233 21.3446 8.14729 18.9652 6.95425C17.1324 6.03516 14.8516 6.76867 13.8683 8.72203C13.6947 9.06699 13.5018 9.63867 13.5018 10.1366V10.1369Z" fill="white"/>
</svg>
