<svg width="39" height="29" viewBox="0 0 39 29" fill="none" xmlns="http://www.w3.org/2000/svg">
<path fill-rule="evenodd" clip-rule="evenodd" d="M29.1588 2.38197C29.1588 3.70496 29.9934 4.16915 30.7261 5.03338C35.0739 10.1568 35.3072 17.5893 31.2244 22.9877L30.277 24.1509C29.862 24.5966 29.1599 25.1087 29.1599 26.1968C29.1599 26.9611 29.4633 27.5079 29.8576 27.9079C30.8739 28.9396 32.359 28.9352 33.4169 27.8688C36.7496 24.5108 38.998 19.6732 38.998 14.8531V13.8008C38.998 9.62633 37.2347 5.55084 35.2568 2.93965C34.0379 1.32967 32.5211 -0.832551 30.4194 0.327373C29.8006 0.668719 29.1578 1.48621 29.1578 2.38088L29.1588 2.38197Z" fill="#BCBCBC"/>
<path fill-rule="evenodd" clip-rule="evenodd" d="M0.247118 13.9517C0.247118 16.2019 0.387301 17.3086 0.897656 19.3164C1.26892 20.7818 1.77818 21.9472 2.39148 23.1669C2.69814 23.7768 2.99931 24.2888 3.3651 24.8302C3.96964 25.7248 5.52042 27.8892 6.52689 28.3784C7.5487 28.8741 8.56393 28.7165 9.31303 27.9849C10.2527 27.0663 10.3447 25.6618 9.53536 24.716C9.3656 24.5171 9.19147 24.3801 9.00638 24.1899C4.93231 19.9883 3.87108 13.1396 6.75578 7.6411C7.23876 6.72034 7.80935 5.9485 8.42156 5.16254C8.60007 4.93208 8.73368 4.83424 8.9341 4.61899C9.53755 3.97218 10.0873 3.41015 10.0873 2.38285C10.0873 0.585894 7.94296 -0.666433 6.33523 0.38587C5.69893 0.802225 4.44495 2.30784 3.98935 2.94053C1.77052 6.01156 0.249308 9.92073 0.249308 13.9527L0.247118 13.9517Z" fill="#BCBCBC"/>
<path fill-rule="evenodd" clip-rule="evenodd" d="M13.1133 22.9669C13.8997 22.9669 14.4484 22.8875 15.0649 22.2755C15.9772 21.37 16.0057 19.835 15.1383 18.9284C12.5405 16.215 12.5219 12.3732 15.1011 9.76529C16.389 8.46296 15.8414 5.68762 13.1889 5.68762C11.683 5.68762 10.3852 7.74439 9.70293 8.9141C9.28019 9.63919 8.9823 10.411 8.71398 11.3133C8.5738 11.7829 8.34819 12.8874 8.34381 13.4244C8.34052 13.831 8.28577 13.9691 8.27043 14.2582C8.24305 14.7724 8.5289 16.7096 8.67784 17.226C9.11372 18.7316 9.71498 19.9459 10.6251 21.1526C11.1694 21.8733 12.0871 22.9658 13.1122 22.9658L13.1133 22.9669Z" fill="#BCBCBC"/>
<path fill-rule="evenodd" clip-rule="evenodd" d="M23.4825 7.86616C23.4825 9.68051 24.1791 9.48918 25.0881 10.9307C26.698 13.4853 26.2588 16.7564 24.144 18.8903C23.2503 19.7915 23.2536 21.3232 24.1418 22.2375C25.3213 23.4507 27.066 23.1191 28.1754 21.6907C29.6539 19.785 30.8651 17.6869 30.8991 15.154C30.9046 14.7409 30.9801 14.6931 30.9801 14.3278C30.9801 13.9626 30.9089 13.9582 30.8991 13.5777C30.8892 13.2081 30.8794 13.0929 30.8378 12.8124C30.6111 11.2698 30.1051 9.70117 29.2662 8.43688L28.1754 6.96605C27.5205 6.12138 26.9389 5.68872 25.7528 5.68872C24.5383 5.68872 23.4825 6.87256 23.4825 7.86725V7.86616Z" fill="#BCBCBC"/>
<path fill-rule="evenodd" clip-rule="evenodd" d="M16.3682 14.3279C16.3682 16.0857 17.8522 17.5587 19.6231 17.5587C21.394 17.5587 22.878 16.0857 22.878 14.3279C22.878 12.5701 21.394 11.097 19.6231 11.097C17.8522 11.097 16.3682 12.5701 16.3682 14.3279Z" fill="#BCBCBC"/>
</svg>
