<svg width="24" height="24" viewBox="0 0 24 24" fill="none" xmlns="http://www.w3.org/2000/svg">
<path d="M9 14C9 14 10.3125 15.5 12.5 15.5C14.6875 15.5 16 14 16 14M15.25 9H15.26M9.75 9H9.76M12.5 20C17.1944 20 21 16.1944 21 11.5C21 6.80558 17.1944 3 12.5 3C7.80558 3 4 6.80558 4 11.5C4 12.45 4.15585 13.3636 4.44337 14.2166C4.73089 15.0696 5.4309 16.4296 6.50037 17.5C7.47291 18.4734 8.4971 19.0693 9.44516 19.4345C10.3932 19.7998 11.4232 20 12.5 20ZM15.75 9C15.75 9.27614 15.5261 9.5 15.25 9.5C14.9739 9.5 14.75 9.27614 14.75 9C14.75 8.72386 14.9739 8.5 15.25 8.5C15.5261 8.5 15.75 8.72386 15.75 9ZM10.25 9C10.25 9.27614 10.0261 9.5 9.75 9.5C9.47386 9.5 9.25 9.27614 9.25 9C9.25 8.72386 9.47386 8.5 9.75 8.5C10.0261 8.5 10.25 8.72386 10.25 9Z" stroke="black" stroke-linecap="round" stroke-linejoin="round"/>
</svg>
