<svg width="32" height="30" viewBox="0 0 32 30" fill="none" xmlns="http://www.w3.org/2000/svg">
<g clip-path="url(#clip0_149_6688)">
<path fill-rule="evenodd" clip-rule="evenodd" d="M23.6313 15.9097C22.5082 15.9097 21.5771 14.97 21.5771 14.108C21.5771 13.4721 21.6695 12.8362 22.2026 12.3911C23.4181 11.3736 24.9036 11.9671 25.387 12.9068C26.1333 14.3623 25.0671 15.9167 23.6313 15.9167V15.9097ZM7.11229 13.9879C7.11229 13.3873 7.2118 12.9634 7.63118 12.5182L7.68804 12.4547C8.49124 11.6563 9.60009 11.6492 10.4957 12.3557C11.3131 12.9987 11.4411 14.5107 10.5384 15.3515C9.23759 16.5738 7.10518 15.6059 7.10518 13.9808L7.11229 13.9879ZM16.3669 15.9097C15.4997 15.9097 14.796 15.3444 14.5046 14.6944C14.4264 14.5248 14.3198 14.0727 14.3198 13.8607C14.3198 13.2884 14.6255 12.7302 14.9311 12.4264C16.2177 11.1475 18.4211 12.1014 18.4211 13.8607C18.4211 14.3977 18.1866 14.9205 17.8098 15.2879C17.4616 15.6341 17.0493 15.9026 16.374 15.9026L16.3669 15.9097ZM0.878568 13.5074C0.878568 15.3162 1.03494 16.6516 1.68888 18.3543C2.00163 19.1669 2.40679 20.0077 2.88303 20.7142C3.02519 20.9262 3.27397 21.2159 3.29529 21.5126C3.34505 22.1838 2.75508 24.8758 2.54184 25.5187C2.29306 26.2818 1.86658 27.3628 1.36902 27.9634C1.09181 28.2884 0.87146 28.4792 0.87146 28.7901C0.87146 29.6803 2.56317 29.1151 3.37348 28.9314C4.9017 28.5852 5.60539 28.3661 7.04832 27.8927C8.22114 27.5041 8.91062 27.1014 9.89863 26.628C10.0905 26.5362 10.0905 26.5644 10.3322 26.6563C14.2629 28.1047 18.5988 28.1824 22.4798 26.628C23.3612 26.2747 24.136 25.9073 24.9179 25.441C27.228 24.0562 28.9197 22.3251 30.2702 20.0006C31.0094 18.7288 31.8482 16.3548 31.8482 14.3482C31.8482 12.2851 31.6776 11.0274 30.9383 9.17627C29.4528 5.45983 26.51 2.888 22.8921 1.29826C18.1013 -0.807251 11.9386 -0.270275 7.51745 2.48526C6.09585 3.36845 4.8164 4.49893 3.77153 5.79897C2.74797 7.07783 1.75996 8.8018 1.3477 10.4269C1.11313 11.3454 0.878568 12.3345 0.878568 13.5074Z" fill="#BCBCBC"/>
</g>
<defs>
<clipPath id="clip0_149_6688">
<rect width="30.9792" height="29.2582" fill="white" transform="translate(0.884155 0.0123291)"/>
</clipPath>
</defs>
</svg>
