<svg width="17" height="17" viewBox="0 0 17 17" fill="none" xmlns="http://www.w3.org/2000/svg">
<g clip-path="url(#clip0_993_3302)">
<path fill-rule="evenodd" clip-rule="evenodd" d="M12.4822 9.66811C11.866 9.66811 11.355 9.15244 11.355 8.67942C11.355 8.33047 11.4057 7.98152 11.6982 7.73725C12.3652 7.17893 13.1804 7.50462 13.4457 8.02029C13.8552 8.81899 13.2702 9.67198 12.4822 9.67198V9.66811ZM3.41736 8.6135C3.41736 8.28394 3.47197 8.05131 3.7021 7.80704L3.73331 7.77215C4.17407 7.33402 4.78256 7.33014 5.27403 7.71787C5.72259 8.07069 5.7928 8.90042 5.29743 9.3618C4.58363 10.0326 3.41346 9.50139 3.41346 8.60963L3.41736 8.6135ZM8.49588 9.66811C8.02002 9.66811 7.63386 9.35793 7.47394 9.00122C7.43103 8.90817 7.37252 8.66003 7.37252 8.54371C7.37252 8.22966 7.54025 7.92336 7.70797 7.75664C8.41397 7.05486 9.62314 7.57829 9.62314 8.54371C9.62314 8.83838 9.49442 9.1253 9.28769 9.32691C9.09657 9.51689 8.87034 9.66423 8.49978 9.66423L8.49588 9.66811ZM-0.00342367 8.34985C-0.00342367 9.34242 0.0823885 10.0752 0.441239 11.0096C0.612864 11.4555 0.835195 11.9169 1.09653 12.3046C1.17454 12.4209 1.31106 12.5799 1.32276 12.7427C1.35007 13.1111 1.02632 14.5883 0.909306 14.9411C0.772786 15.3599 0.538753 15.9531 0.265715 16.2826C0.113593 16.461 -0.00732422 16.5657 -0.00732422 16.7363C-0.00732422 17.2248 0.921008 16.9146 1.36567 16.8138C2.20429 16.6238 2.59044 16.5036 3.38226 16.2439C4.02585 16.0306 4.4042 15.8096 4.94638 15.5498C5.05169 15.4994 5.05169 15.5149 5.18431 15.5654C7.34132 16.3602 9.72066 16.4028 11.8504 15.5498C12.334 15.356 12.7592 15.1544 13.1882 14.8985C14.4559 14.1385 15.3843 13.1886 16.1254 11.913C16.531 11.2151 16.9913 9.91237 16.9913 8.81124C16.9913 7.67909 16.8977 6.98895 16.492 5.97312C15.6768 3.9337 14.062 2.5224 12.0766 1.65002C9.44762 0.494611 6.06584 0.78928 3.63969 2.30139C2.85958 2.78605 2.15748 3.4064 1.5841 4.11981C1.02242 4.82158 0.480245 5.76763 0.254013 6.65939C0.125295 7.16342 -0.00342367 7.70623 -0.00342367 8.34985Z" fill="black"/>
</g>
<defs>
<clipPath id="clip0_993_3302">
<rect width="17" height="16.0556" fill="white" transform="translate(0 0.944336)"/>
</clipPath>
</defs>
</svg>
