<svg width="32" height="31" viewBox="0 0 32 31" fill="none" xmlns="http://www.w3.org/2000/svg">
<g clip-path="url(#clip0_16_636)">
<path fill-rule="evenodd" clip-rule="evenodd" d="M16.8206 3.25164V10.9364C16.8206 12.5379 18.4712 14.188 20.0733 14.188H27.7608C29.3629 14.188 31.0136 12.5379 31.0136 10.9364V3.25164C31.0136 1.65009 29.3629 0 27.7608 0H20.0733C18.9203 0 17.6944 0.882674 17.1634 1.96858C17.0087 2.28252 16.8206 2.82092 16.8206 3.25164Z" fill="#BCBCBC"/>
<path fill-rule="evenodd" clip-rule="evenodd" d="M0.262329 3.25176V10.9365C0.262329 11.3672 0.450457 11.9056 0.605207 12.2196C0.958704 12.9399 1.51095 13.492 2.2316 13.8454C2.54565 14.0001 3.08424 14.1881 3.51511 14.1881H11.2025C11.6334 14.1881 12.172 14.0001 12.4861 13.8454C13.2067 13.492 13.759 12.9399 14.1125 12.2196C14.2672 11.9056 14.4553 11.3672 14.4553 10.9365V3.25176C14.4553 1.65021 12.8047 0.00012207 11.2025 0.00012207H3.51511C2.7444 0.00012207 1.78707 0.502124 1.27579 1.01323C0.764508 1.52433 0.262329 2.4798 0.262329 3.25176Z" fill="#BCBCBC"/>
<path fill-rule="evenodd" clip-rule="evenodd" d="M0.262329 19.8039V27.4886C0.262329 28.2591 0.764508 29.216 1.27579 29.7271C1.78707 30.2382 2.74288 30.7403 3.51511 30.7403H11.2025C11.6334 30.7403 12.172 30.5522 12.4861 30.3975C13.5723 29.8667 14.4553 28.6412 14.4553 27.4886V19.8039C14.4553 18.6528 13.5723 17.4258 12.4861 16.895C12.172 16.7403 11.6334 16.5522 11.2025 16.5522H3.51511C3.08424 16.5522 2.54565 16.7403 2.2316 16.895C1.14531 17.4258 0.262329 18.6513 0.262329 19.8039Z" fill="#BCBCBC"/>
<path d="M18.7131 22.2942L24.0945 27.6757L29.476 22.2942" stroke="#BCBCBC" stroke-width="3.07513" stroke-linecap="round" stroke-linejoin="round"/>
</g>
<defs>
<clipPath id="clip0_16_636">
<rect width="30.7513" height="30.7513" fill="white" transform="translate(0.262329)"/>
</clipPath>
</defs>
</svg>
