<svg width="23" height="18" viewBox="0 0 23 18" fill="none" xmlns="http://www.w3.org/2000/svg">
<path fill-rule="evenodd" clip-rule="evenodd" d="M0.972595 16.4022V17.5638H14.3527C14.3527 15.8549 14.2466 14.7718 13.3547 13.3558C12.9155 12.6587 12.669 12.3938 12.0614 11.8528C11.9711 11.7723 11.9348 11.7558 11.8477 11.6793C11.7405 11.5851 11.7353 11.5724 11.6084 11.4884C11.2527 11.2527 10.994 11.1107 10.5954 10.9096C9.01389 10.112 6.48053 10.082 4.90216 10.8237C4.24368 11.1332 3.96965 11.2669 3.41921 11.7069C2.98548 12.0531 2.59 12.4663 2.25722 12.9111C2.023 13.2241 1.83216 13.5207 1.64684 13.8925C1.5463 14.0936 1.47769 14.217 1.40829 14.4283C1.20562 15.0454 0.97299 15.6999 0.97299 16.4022H0.972595Z" fill="#808080"/>
<path fill-rule="evenodd" clip-rule="evenodd" d="M12.589 10.5942C12.6943 10.7515 13.2676 11.1868 13.4249 11.3931C13.5176 11.5145 13.5937 11.5752 13.6977 11.6797C13.8641 11.8473 14.0211 12.0858 14.1689 12.2838C14.3377 12.5093 14.456 12.7258 14.6031 12.9683C15.1247 13.8259 15.6002 15.3262 15.6002 16.4022H23V15.0304C22.9783 14.1634 22.8675 13.3791 22.3979 12.4439C22.2351 12.1197 22.0557 11.8201 21.8451 11.5338C20.6102 9.85254 18.8149 9.04541 16.7185 9.04541C15.7189 9.04541 14.5967 9.30683 13.8649 9.71966L12.5882 10.5942H12.589Z" fill="black"/>
<path fill-rule="evenodd" clip-rule="evenodd" d="M3.64001 4.48506C3.64001 5.54848 3.78788 6.35481 4.41402 7.23922L4.87614 7.80977C5.37808 8.31486 6.08821 8.73676 6.80583 8.89172C7.71626 9.08847 8.57898 8.96664 9.33366 8.58732C10.1798 8.16188 10.9416 7.40167 11.3044 6.51371C11.7645 5.38681 11.8619 4.088 11.3272 2.95085C10.8998 2.04199 10.3482 1.34014 9.40582 0.871325C8.28996 0.316155 7.06488 0.277908 5.93404 0.841753C5.46522 1.07557 5.16476 1.35079 4.81265 1.69974C4.23816 2.26911 3.64041 3.35934 3.64041 4.48545L3.64001 4.48506Z" fill="#808080"/>
<path fill-rule="evenodd" clip-rule="evenodd" d="M16.6329 8.35651C18.0326 8.35651 18.8331 7.9074 19.6201 6.82624C20.5995 5.4809 20.4213 3.29137 19.2254 2.10729C18.8603 1.74572 18.8839 1.78042 18.5086 1.5332C17.578 0.920458 16.3297 0.901926 15.3412 1.38573C15.0368 1.53477 14.5317 1.87111 14.3274 2.13608C13.5274 3.17544 13.1607 4.00149 13.4048 5.432C13.6622 6.94059 15.0289 8.35651 16.6325 8.35651H16.6329Z" fill="black"/>
</svg>
