<svg width="38" height="29" viewBox="0 0 38 29" fill="none" xmlns="http://www.w3.org/2000/svg">
<path fill-rule="evenodd" clip-rule="evenodd" d="M0.455315 26.7307V28.6756H22.857C22.857 25.8144 22.6794 24.001 21.1861 21.6304C20.4507 20.4632 20.0381 20.0196 19.0208 19.1139C18.8697 18.9792 18.8089 18.9515 18.663 18.8234C18.4835 18.6656 18.4749 18.6445 18.2623 18.5039C17.6669 18.1091 17.2338 17.8715 16.5664 17.5348C13.9185 16.1993 9.67701 16.1491 7.03441 17.3909C5.93196 17.9091 5.47315 18.1329 4.55157 18.8696C3.8254 19.4492 3.16327 20.1411 2.6061 20.8857C2.21397 21.4099 1.89445 21.9063 1.58418 22.5289C1.41584 22.8655 1.30097 23.0722 1.18479 23.426C0.845466 24.4591 0.455975 25.555 0.455975 26.7307H0.455315Z" fill="#BCBCBC"/>
<path fill-rule="evenodd" clip-rule="evenodd" d="M19.9041 17.0064C20.0804 17.2698 21.0402 17.9986 21.3036 18.3439C21.4588 18.5472 21.5862 18.6489 21.7605 18.8238C22.0391 19.1044 22.3018 19.5038 22.5494 19.8352C22.8319 20.2128 23.03 20.5752 23.2762 20.9812C24.1496 22.417 24.9457 24.9289 24.9457 26.7305H37.3348V24.4338C37.2985 22.9821 37.113 21.6691 36.3268 20.1032C36.0541 19.5606 35.7538 19.0588 35.4012 18.5796C33.3336 15.7647 30.328 14.4133 26.8179 14.4133C25.1444 14.4133 23.2656 14.851 22.0404 15.5422L19.9028 17.0064H19.9041Z" fill="#BCBCBC"/>
<path fill-rule="evenodd" clip-rule="evenodd" d="M4.92126 6.77816C4.92126 8.5586 5.16882 9.90861 6.21715 11.3893L6.99085 12.3446C7.83123 13.1902 9.02016 13.8966 10.2216 14.156C11.7459 14.4855 13.1904 14.2815 14.4539 13.6464C15.8706 12.9341 17.146 11.6613 17.7534 10.1747C18.5238 8.28794 18.6868 6.11339 17.7916 4.2095C17.076 2.68785 16.1525 1.51277 14.5747 0.727848C12.7065 -0.20165 10.6554 -0.265685 8.76204 0.678336C7.97712 1.06981 7.47408 1.5306 6.88456 2.11483C5.92272 3.06809 4.92192 4.89342 4.92192 6.77882L4.92126 6.77816Z" fill="#BCBCBC"/>
<path fill-rule="evenodd" clip-rule="evenodd" d="M26.6747 13.2606C29.0182 13.2606 30.3583 12.5087 31.676 10.6985C33.3158 8.44608 33.0175 4.78024 31.0152 2.7978C30.4039 2.19244 30.4435 2.25053 29.815 1.83661C28.2571 0.810732 26.167 0.779705 24.512 1.58971C24.0024 1.83925 23.1567 2.40236 22.8148 2.84599C21.4753 4.58616 20.8614 5.96918 21.27 8.36422C21.7011 10.89 23.9892 13.2606 26.674 13.2606H26.6747Z" fill="#BCBCBC"/>
</svg>
