<svg width="19" height="24" viewBox="0 0 19 24" fill="none" xmlns="http://www.w3.org/2000/svg">
<g clip-path="url(#clip0_1020_3130)">
<path fill-rule="evenodd" clip-rule="evenodd" d="M0.974028 18.1944C0.974028 18.8811 0.929509 19.0996 1.33161 19.7094C1.51859 19.9927 1.7654 20.1893 2.02361 20.3895C2.49872 20.7575 3.19749 21.0781 3.82254 21.2801C6.1062 22.0179 8.91696 22.1806 11.4969 21.8556C11.4763 21.8476 11.456 21.8367 11.4371 21.8221C11.3018 21.7189 11.3609 21.2459 11.3819 21.0796C11.4977 20.1667 11.7224 19.4515 12.2171 18.6495C12.3018 18.512 12.3766 18.4085 12.4767 18.2717L12.7737 17.9085C12.923 17.709 12.882 17.8187 12.8649 17.5299C12.8485 17.2516 12.8809 17.1579 12.8802 16.9617C12.8788 16.6254 12.9885 15.9949 13.0565 15.6513C13.106 15.4015 13.168 15.1542 13.2492 14.9091C13.4647 14.2592 13.5145 14.0948 13.8618 13.4106C14.0014 13.1356 14.2105 12.784 14.453 12.454C14.3472 12.3584 14.2475 12.2712 14.1713 12.2056C13.9964 12.0542 13.8547 11.9605 13.6723 11.8208C13.4754 11.6698 13.3511 11.5922 13.1352 11.4751L10.0645 16.2593C9.90386 16.5058 9.13778 17.7502 9.02345 17.8359L6.99409 14.6732C6.63865 14.1294 6.32238 13.6196 5.97015 13.0787L4.95511 11.4751C4.71969 11.5393 4.02448 12.09 3.78693 12.2946L3.29722 12.7785C2.43746 13.6983 1.82559 14.6338 1.39465 15.8924C1.19734 16.4682 0.974028 17.4511 0.974028 18.1944Z" fill="#808080"/>
<path fill-rule="evenodd" clip-rule="evenodd" d="M5.30487 4.12843C5.30487 5.40963 5.61294 6.20614 6.45311 7.07377C6.91967 7.55555 7.57855 7.91222 8.24599 8.05993C9.41987 8.31996 10.5685 7.98772 11.4428 7.23315C11.8456 6.88559 11.596 7.11754 11.9008 6.76122C12.975 5.50628 13.069 3.61383 12.138 2.19295C11.9749 1.94386 11.9286 1.88405 11.7245 1.6758C10.8545 0.787386 10.1129 0.5 8.84824 0.5C7.0258 0.5 5.30487 2.26297 5.30487 4.12843Z" fill="#808080"/>
<path fill-rule="evenodd" clip-rule="evenodd" d="M7.492 10.9373L7.81468 12.0406C8.007 12.4895 8.08179 11.9231 7.94218 13.0114C7.91048 13.2601 7.88306 13.4841 7.85492 13.6836C7.75128 14.4159 7.64586 14.6172 7.84958 14.9159C8.04262 15.1993 8.91555 16.6475 9.06692 16.7609L9.68805 15.7394C10.4324 14.603 10.3815 14.9039 10.2725 14.1376C10.2027 13.6456 10.1229 12.7817 10.0292 12.3706C10.1072 12.2514 10.151 12.255 10.218 12.1161C10.2661 12.0169 10.3053 11.859 10.3409 11.7492C10.4705 11.3484 10.7415 10.8071 10.3615 10.4625C10.2561 10.367 10.1229 10.3101 9.94163 10.3101H8.14804C7.78405 10.3101 7.492 10.5774 7.492 10.9373Z" fill="#808080"/>
<path fill-rule="evenodd" clip-rule="evenodd" d="M14.713 15.5894L14.8558 15.4439C15.1443 15.1503 15.7868 15.1522 16.0739 15.4476L16.216 15.5938C16.5027 15.8892 16.5009 16.5471 16.2124 16.8411C15.9877 17.0698 15.7818 17.2404 15.421 17.2084C15.1643 17.1857 14.9883 17.1263 14.781 16.9184C14.5228 16.6591 14.4256 16.27 14.5303 15.9337C14.5609 15.8352 14.6176 15.6864 14.713 15.5894ZM15.1493 12.6587L15.3267 12.4782C15.4139 12.4063 15.5122 12.3673 15.6034 12.461C16.0347 12.9056 16.3424 13.2769 16.6199 13.8042C16.8959 14.329 17.0465 14.639 17.2364 15.2258C17.3357 15.5325 17.3788 15.7641 17.454 16.0625C17.5419 16.4122 17.5644 16.8269 17.6018 17.1774C17.6075 17.2302 17.6039 17.2685 17.6035 17.3232C17.6025 17.4556 17.6306 17.5158 17.6153 17.7477C17.5893 18.1464 17.5793 17.9257 17.8561 18.3057C18.4028 19.057 18.7066 19.6573 18.8786 20.5512C18.9081 20.7051 19.0584 21.5111 18.9064 21.6658C18.7514 21.8233 18.5954 21.6541 18.4402 21.533L17.5077 20.8098C17.3443 20.6902 17.5234 21.0097 17.3532 21.1832C17.2805 21.2573 16.9728 21.2285 16.8738 21.2281L14.4769 21.2208C14.3113 21.2204 13.6296 21.2595 13.5313 21.1581C13.4451 21.0695 13.4732 20.9126 13.4629 20.8094C13.4533 20.7124 13.4091 20.7846 13.3383 20.8401L12.507 21.475C12.419 21.5414 12.2477 21.6876 12.1694 21.7088C12.117 21.723 12.0533 21.7099 12.0013 21.6705C11.8777 21.5768 11.9318 21.1457 11.951 20.994C12.0565 20.1624 12.2612 19.5111 12.7118 18.7806C12.7891 18.6555 12.8571 18.561 12.9483 18.4363L13.2186 18.1055C13.3543 17.9235 13.3172 18.0238 13.3016 17.7609C13.2866 17.5074 13.3162 17.4221 13.3155 17.2434C13.3144 16.937 13.4141 16.363 13.4761 16.0497C13.5213 15.8221 13.5776 15.5971 13.6517 15.3735C13.8479 14.7816 13.8935 14.6317 14.2094 14.0088C14.4092 13.6153 14.7654 13.0493 15.1493 12.6587Z" fill="#00CE83"/>
<path fill-rule="evenodd" clip-rule="evenodd" d="M15.3658 23.4652C15.4107 23.5115 15.4656 23.5115 15.5104 23.4655C15.5795 23.3952 15.8702 22.7442 15.9339 22.5786C15.9848 22.4462 16.0564 22.2664 16.0568 22.1347C16.0568 22.0633 16.0472 21.9801 16.0194 21.9126C15.7355 21.2226 14.8302 21.4637 14.8273 22.1311C14.8263 22.3816 15.1226 22.9867 15.2465 23.2427C15.27 23.2908 15.3356 23.4342 15.3658 23.4652Z" fill="#808080"/>
</g>
<defs>
<clipPath id="clip0_1020_3130">
<rect width="18" height="23" fill="white" transform="translate(0.972595 0.5)"/>
</clipPath>
</defs>
</svg>
