<svg width="24" height="18" viewBox="0 0 24 18" fill="none" xmlns="http://www.w3.org/2000/svg">
<path fill-rule="evenodd" clip-rule="evenodd" d="M0.972656 16.729V17.9419H14.9435C14.9435 16.1576 14.8328 15.0266 13.9015 13.5482C13.4428 12.8203 13.1855 12.5436 12.5511 11.9787C12.4568 11.8947 12.4189 11.8775 12.3279 11.7976C12.216 11.6992 12.2106 11.686 12.078 11.5983C11.7067 11.3521 11.4366 11.2039 11.0204 10.9939C9.369 10.161 6.72379 10.1298 5.07573 10.9042C4.38818 11.2274 4.10204 11.3669 3.5273 11.8264C3.07442 12.1879 2.66148 12.6193 2.314 13.0838C2.06944 13.4106 1.87018 13.7203 1.67667 14.1085C1.57169 14.3185 1.50005 14.4473 1.42759 14.668C1.21597 15.3123 0.973068 15.9958 0.973068 16.729H0.972656Z" fill="#868686"/>
<path fill-rule="evenodd" clip-rule="evenodd" d="M13.1019 10.6643C13.2118 10.8286 13.8104 11.2831 13.9747 11.4984C14.0715 11.6252 14.1509 11.6886 14.2596 11.7977C14.4334 11.9727 14.5972 12.2218 14.7516 12.4285C14.9278 12.664 15.0513 12.89 15.2049 13.1432C15.7496 14.0387 16.2461 15.6052 16.2461 16.7287H23.9726V15.2964C23.95 14.3911 23.8343 13.5722 23.3439 12.5956C23.1739 12.2572 22.9866 11.9443 22.7667 11.6454C21.4772 9.88988 19.6027 9.04712 17.4137 9.04712C16.37 9.04712 15.1983 9.32008 14.4342 9.75114L13.1011 10.6643H13.1019Z" fill="#868686"/>
<path fill-rule="evenodd" clip-rule="evenodd" d="M3.75781 4.28552C3.75781 5.39589 3.9122 6.23783 4.56599 7.16129L5.04851 7.75703C5.57262 8.28443 6.3141 8.72495 7.06341 8.88675C8.01404 9.09219 8.91485 8.96498 9.70286 8.56892C10.5864 8.12468 11.3818 7.33091 11.7606 6.40375C12.241 5.22709 12.3427 3.87093 11.7844 2.68357C11.3382 1.73458 10.7622 1.00175 9.7782 0.512227C8.61307 -0.0674556 7.3339 -0.107391 6.15312 0.481349C5.6636 0.725491 5.34988 1.01286 4.98223 1.37722C4.38237 1.97173 3.75822 3.1101 3.75822 4.28593L3.75781 4.28552Z" fill="#868686"/>
<path fill-rule="evenodd" clip-rule="evenodd" d="M17.3245 8.32822C18.7861 8.32822 19.6219 7.85929 20.4436 6.73039C21.4663 5.32565 21.2802 3.03944 20.0315 1.80308C19.6503 1.42555 19.675 1.46178 19.283 1.20364C18.3114 0.563845 17.0079 0.544495 15.9758 1.04966C15.658 1.20528 15.1306 1.55647 14.9173 1.83314C14.0819 2.9184 13.6991 3.78092 13.9539 5.27459C14.2227 6.84978 15.6497 8.32822 17.3241 8.32822H17.3245Z" fill="#868686"/>
</svg>
