<svg width="23" height="22" viewBox="0 0 23 22" fill="none" xmlns="http://www.w3.org/2000/svg">
<path fill-rule="evenodd" clip-rule="evenodd" d="M0.974105 17.9328C0.974105 18.6192 0.928369 18.8375 1.34036 19.4472C1.53194 19.7306 1.78439 19.9269 2.04873 20.1267C2.5349 20.4944 3.25011 20.8149 3.8897 21.0166C6.9119 21.9699 10.8359 21.9627 13.9852 21.1833C14.2067 21.1286 14.3457 21.067 14.5401 21.022C14.3046 20.6702 13.4043 20.0522 13.0442 18.4885C12.1777 14.7259 15.2589 13.0254 15.3908 12.8291C15.2265 12.5838 14.7314 12.1585 14.4814 11.9475C14.3024 11.7962 14.1573 11.7026 13.9708 11.5629C13.7691 11.412 13.642 11.3342 13.4209 11.2172L10.278 15.9986C10.1138 16.2449 9.32944 17.4888 9.2124 17.5745L7.13518 14.4133C6.77145 13.8699 6.44769 13.3603 6.0872 12.8197L5.04859 11.2168C4.80767 11.2813 4.09606 11.8315 3.85297 12.0357L3.35203 12.5197C2.47224 13.4388 1.84598 14.374 1.40482 15.632C1.20315 16.2075 0.974465 17.1899 0.974465 17.9325L0.974105 17.9328Z" fill="#808080"/>
<path fill-rule="evenodd" clip-rule="evenodd" d="M17.0916 16.187C17.0916 16.4737 17.1975 16.626 17.4161 16.8028C17.8472 17.1518 18.6658 16.7632 19.2484 17.6117C19.9208 18.5905 19.0381 19.6626 18.3002 19.6788C18.3002 20.0015 18.3539 20.6418 17.7183 20.2161C17.7183 19.3169 17.7395 20.0108 16.9216 19.3115C16.7639 19.1768 16.6886 19.1851 16.6886 18.9175C16.6886 18.8228 16.8702 18.5033 17.2533 18.7997C17.3844 18.9009 17.5634 19.1411 17.9423 19.1411C19.0565 19.1411 19.3759 17.6401 17.8533 17.5735C16.8792 17.531 16.1801 16.5133 16.6199 15.6252C16.783 15.2957 17.2184 14.8981 17.6732 14.888C17.6732 14.556 17.6027 13.8688 18.2552 14.306C18.2552 14.5772 18.2833 14.6856 18.2999 14.888C18.7208 14.9229 19.3295 15.2294 19.3295 15.694C19.3295 15.869 19.0442 16.0426 18.8109 15.8096C18.763 15.7617 18.8145 15.7963 18.7266 15.7149C18.1857 15.2128 17.0909 15.4102 17.0909 16.1866L17.0916 16.187ZM13.5098 16.993C13.5098 17.872 13.5364 18.3949 13.9423 19.202C14.4324 20.1768 15.0994 20.833 16.0761 21.3213C17.1997 21.8831 18.7741 21.8831 19.8977 21.3213C20.434 21.0534 20.7538 20.8298 21.1546 20.4289C23.3067 18.2768 22.7651 14.6417 19.9572 13.2318C17.7942 12.1456 15.1026 13.0125 13.9423 15.3209C13.7374 15.7285 13.5098 16.4041 13.5098 16.9926V16.993Z" fill="black"/>
<path fill-rule="evenodd" clip-rule="evenodd" d="M5.40655 3.87515C5.40655 5.15577 5.72166 5.95165 6.58165 6.81884C7.05918 7.30033 7.73334 7.65686 8.4165 7.80451C9.61789 8.06452 10.7937 7.73213 11.6883 6.97802C12.1006 6.63049 11.8449 6.86242 12.1568 6.50661C13.2559 5.25264 13.3521 3.36089 12.3995 1.94091C12.2324 1.6917 12.1852 1.63228 11.9764 1.42412C11.0858 0.536406 10.327 0.249023 9.03268 0.249023C7.16758 0.249023 5.40619 2.01077 5.40619 3.87551L5.40655 3.87515Z" fill="#808080"/>
<path fill-rule="evenodd" clip-rule="evenodd" d="M7.64511 10.6802L7.97535 11.7826C8.17234 12.2313 8.24869 11.6652 8.10608 12.7527C8.07366 13.0012 8.04557 13.2252 8.01676 13.4244C7.91053 14.1562 7.80285 14.3575 8.01136 14.656C8.20907 14.9391 9.10219 16.3868 9.25704 16.5002L9.89267 15.4793C10.6543 14.3434 10.6021 14.6445 10.4908 13.8785C10.4192 13.3866 10.3378 12.5233 10.242 12.1124C10.3216 11.9932 10.3666 11.9968 10.4354 11.8582C10.4844 11.7588 10.5247 11.6014 10.5611 11.4916C10.694 11.0908 10.9713 10.5502 10.5823 10.2056C10.4746 10.1101 10.3381 10.0532 10.1527 10.0532H8.31711C7.94438 10.0532 7.64547 10.3204 7.64547 10.6798L7.64511 10.6802Z" fill="#808080"/>
</svg>
