<svg width="20" height="19" viewBox="0 0 20 19" fill="none" xmlns="http://www.w3.org/2000/svg">
<g clip-path="url(#clip0_1258_8085)">
<path fill-rule="evenodd" clip-rule="evenodd" d="M0.976483 16.4973V14.7749C0.976483 14.6392 1.37279 14.3999 1.47297 14.3228L4.17349 12.2857C4.27206 12.2114 4.35012 12.1615 4.44748 12.086C4.98823 11.6673 5.55593 11.3665 6.17836 11.8847L7.58736 13.1635C7.69599 13.2671 7.76519 13.3088 7.88026 13.4239L8.44797 13.9234C9.2949 14.7667 10.2625 15.2304 11.4716 14.5616C12.4786 14.0047 13.8462 13.1475 14.885 12.5344L16.2502 11.7312C16.2502 12.1904 16.29 16.5175 16.228 16.7551C16.1222 17.161 15.6732 17.4585 15.2343 17.4585H1.79686C1.31324 17.4585 0.976483 17.0121 0.976483 16.4973ZM20 3.90699V4.13265C19.9895 4.37564 19.9505 4.64709 19.9207 5.00146C19.8982 5.27044 19.868 5.54189 19.8322 5.8319L18.9101 14.138C18.8063 15.2811 18.3118 15.8871 17.2657 16.1367C17.2657 16.5913 17.2597 16.8549 17.1277 17.1969C17.0734 17.3376 16.9969 17.4783 16.9201 17.5847C16.8513 17.68 16.7362 17.8322 16.6509 17.9094C16.2184 18.3013 15.6897 18.4997 14.883 18.4997H2.10948C1.77151 18.4997 1.50999 18.4643 1.2541 18.3751C0.555634 18.1322 0 17.3727 0 16.7774V6.24361C0 5.80674 0.245428 5.18298 0.544771 4.87976C1.23519 4.17968 1.69869 4.28117 2.61723 4.28117C2.61723 4.07407 2.67235 3.77003 2.69529 3.56005C2.75604 3.00436 2.83691 1.99405 3.059 1.56996C3.40622 0.906601 4.04836 0.413617 5.00352 0.512214C5.94017 0.60916 6.86274 0.743235 7.77726 0.832756C10.0332 1.05388 12.4251 1.41526 14.6521 1.63391L17.4254 1.95445C18.2651 2.03654 19.1144 2.10131 19.6025 2.84636C19.8861 3.27994 19.9835 3.58274 20 3.90658V3.90699ZM10.3909 13.8541C9.78736 13.8541 9.51699 13.5476 9.05309 13.1029C8.9529 13.0068 8.9002 12.9882 8.79841 12.8834C8.68495 12.7667 8.64753 12.7444 8.52723 12.6409C8.34336 12.4824 8.17759 12.2993 7.99654 12.1437L7.1995 11.4391C6.93396 11.2102 6.701 10.9441 6.31274 10.7861C5.76395 10.5629 5.21153 10.539 4.65348 10.7745C4.19481 10.968 2.50337 12.277 2.02619 12.6466L1.25571 13.2188C1.14506 13.305 1.1004 13.3463 0.976885 13.4135L0.976483 6.56416C0.972057 5.82943 1.25329 5.28281 1.95337 5.28281H15.1172C15.7287 5.28281 16.2502 5.77538 16.2502 6.32406V10.4494C16.2502 10.5947 15.7159 10.8583 15.5859 10.9301L11.243 13.5262C11.0286 13.6598 10.714 13.8537 10.3909 13.8537V13.8541ZM17.2657 15.0959C17.2657 13.0266 17.2657 10.9573 17.2657 8.88758C17.2657 8.12644 17.3518 6.43998 17.184 5.88759C17.0114 5.31953 16.7205 4.86367 16.2099 4.56334C15.3932 4.08274 13.8868 4.28199 12.6955 4.28199C9.66183 4.28199 6.62777 4.28199 3.59412 4.28199C3.64562 4.17184 3.76914 2.82862 3.79609 2.56624C3.82667 2.26757 3.88984 2.05923 4.0387 1.85379C4.47565 1.25231 5.67382 1.6075 6.44189 1.68176C6.97258 1.73292 7.54109 1.83151 8.08505 1.87937C8.62942 1.92722 9.18828 2.03036 9.72781 2.07739C10.2702 2.12483 10.8499 2.20445 11.3746 2.27128L16.2824 2.84636C16.809 2.90535 17.3739 2.99198 17.9267 3.04314C19.3647 3.17598 18.9857 4.30427 18.8606 5.47588L18.0977 12.1833C18.0523 12.5513 17.8978 14.4115 17.7734 14.654C17.6523 14.8904 17.495 14.9709 17.2661 15.095L17.2657 15.0959Z" fill="black"/>
<path fill-rule="evenodd" clip-rule="evenodd" d="M10.1173 7.84619C10.3691 7.84619 10.7075 8.0046 10.8491 8.13703C11.4172 8.66879 11.3034 10.0087 10.0392 10.0087C9.11143 10.0087 8.6073 8.52399 9.67994 7.9584C9.76443 7.91384 10.0046 7.84619 10.1173 7.84619ZM8.08586 8.84742C8.08586 9.50501 8.29146 10.0739 8.7111 10.4493C10.7256 12.2525 13.3368 9.57761 11.6249 7.50172C11.0978 6.8627 10.0557 6.63745 9.23133 7.05741C8.58798 7.38538 8.08586 8.06566 8.08586 8.84701V8.84742Z" fill="black"/>
</g>
<defs>
<clipPath id="clip0_1258_8085">
<rect width="20" height="18" fill="white" transform="translate(0 0.5)"/>
</clipPath>
</defs>
</svg>
