<svg width="20" height="18" viewBox="0 0 20 18" fill="none" xmlns="http://www.w3.org/2000/svg">
<g clip-path="url(#clip0_1149_9971)">
<path fill-rule="evenodd" clip-rule="evenodd" d="M0.976483 15.9971V14.2748C0.976483 14.1391 1.37279 13.8998 1.47297 13.8227L4.17349 11.7855C4.27206 11.7113 4.35012 11.6614 4.44748 11.5859C4.98823 11.1671 5.55593 10.8664 6.17836 11.3845L7.58736 12.6634C7.69599 12.767 7.76519 12.8086 7.88026 12.9237L8.44797 13.4233C9.2949 14.2665 10.2625 14.7302 11.4716 14.0615C12.4786 13.5046 13.8462 12.6473 14.885 12.0343L16.2502 11.2311C16.2502 11.6902 16.29 16.0174 16.228 16.255C16.1222 16.6609 15.6732 16.9584 15.2343 16.9584H1.79686C1.31324 16.9584 0.976483 16.512 0.976483 15.9971ZM20 3.40687V3.63253C19.9895 3.87552 19.9505 4.14697 19.9207 4.50134C19.8982 4.77031 19.868 5.04176 19.8322 5.33178L18.9101 13.6378C18.8063 14.781 18.3118 15.387 17.2657 15.6366C17.2657 16.0912 17.2597 16.3548 17.1277 16.6968C17.0734 16.8375 16.9969 16.9782 16.9201 17.0846C16.8513 17.1799 16.7362 17.3321 16.6509 17.4093C16.2184 17.8012 15.6897 17.9996 14.883 17.9996H2.10948C1.77151 17.9996 1.50999 17.9641 1.2541 17.875C0.555634 17.632 0 16.8726 0 16.2773V5.74349C0 5.30661 0.245428 4.68286 0.544771 4.37964C1.23519 3.67956 1.69869 3.78105 2.61723 3.78105C2.61723 3.57395 2.67235 3.26991 2.69529 3.05993C2.75604 2.50424 2.83691 1.49393 3.059 1.06984C3.40622 0.406479 4.04836 -0.0865052 5.00352 0.0120916C5.94017 0.109038 6.86274 0.243113 7.77726 0.332634C10.0332 0.553755 12.4251 0.915139 14.6521 1.13378L17.4254 1.45433C18.2651 1.53642 19.1144 1.60119 19.6025 2.34624C19.8861 2.77981 19.9835 3.08262 20 3.40646V3.40687ZM10.3909 13.354C9.78736 13.354 9.51699 13.0475 9.05309 12.6028C8.9529 12.5067 8.9002 12.4881 8.79841 12.3833C8.68495 12.2666 8.64753 12.2443 8.52723 12.1407C8.34336 11.9823 8.17759 11.7991 7.99654 11.6436L7.1995 10.939C6.93396 10.71 6.701 10.444 6.31274 10.286C5.76395 10.0628 5.21153 10.0388 4.65348 10.2744C4.19481 10.4679 2.50337 11.7769 2.02619 12.1465L1.25571 12.7187C1.14506 12.8049 1.1004 12.8462 0.976885 12.9134L0.976483 6.06404C0.972057 5.3293 1.25329 4.78269 1.95337 4.78269H15.1172C15.7287 4.78269 16.2502 5.27526 16.2502 5.82394V9.94933C16.2502 10.0945 15.7159 10.3582 15.5859 10.4299L11.243 13.026C11.0286 13.1597 10.714 13.3536 10.3909 13.3536V13.354ZM17.2657 14.5957C17.2657 12.5265 17.2657 10.4572 17.2657 8.38745C17.2657 7.62632 17.3518 5.93986 17.184 5.38747C17.0114 4.81941 16.7205 4.36355 16.2099 4.06322C15.3932 3.58261 13.8868 3.78187 12.6955 3.78187C9.66183 3.78187 6.62777 3.78187 3.59412 3.78187C3.64562 3.67172 3.76914 2.3285 3.79609 2.06612C3.82667 1.76744 3.88984 1.55911 4.0387 1.35367C4.47565 0.752186 5.67382 1.10738 6.44189 1.18164C6.97258 1.23279 7.54109 1.33139 8.08505 1.37925C8.62942 1.4271 9.18828 1.53023 9.72781 1.57726C10.2702 1.62471 10.8499 1.70433 11.3746 1.77116L16.2824 2.34624C16.809 2.40523 17.3739 2.49186 17.9267 2.54302C19.3647 2.67585 18.9857 3.80415 18.8606 4.97576L18.0977 11.6832C18.0523 12.0512 17.8978 13.9113 17.7734 14.1539C17.6523 14.3903 17.495 14.4708 17.2661 14.5949L17.2657 14.5957Z" fill="black"/>
<path fill-rule="evenodd" clip-rule="evenodd" d="M10.1174 7.34607C10.3692 7.34607 10.7076 7.50448 10.8492 7.6369C11.4173 8.16867 11.3035 9.50859 10.0393 9.50859C9.11151 9.50859 8.60737 8.02387 9.68001 7.45828C9.76451 7.41372 10.0047 7.34607 10.1174 7.34607ZM8.08594 8.3473C8.08594 9.00488 8.29153 9.57377 8.71118 9.94918C10.7257 11.7524 13.3369 9.07749 11.6249 7.0016C11.0979 6.36257 10.0558 6.13733 9.2314 6.55729C8.58806 6.88526 8.08594 7.56554 8.08594 8.34688V8.3473Z" fill="black"/>
</g>
<defs>
<clipPath id="clip0_1149_9971">
<rect width="20" height="18" fill="white"/>
</clipPath>
</defs>
</svg>
