<svg width="6" height="8" viewBox="0 0 6 8" fill="none" xmlns="http://www.w3.org/2000/svg">
<g clip-path="url(#clip0_944_2814)">
<path fill-rule="evenodd" clip-rule="evenodd" d="M2.34545 5.57513L1.02344 4.31472L1.47449 3.87478C1.54644 3.9222 1.62882 4.01534 1.69217 4.07609L2.22872 4.59071C2.26794 4.62853 2.29158 4.66913 2.34927 4.68394L4.52281 2.60697L4.9815 3.03955L2.34541 5.57517L2.34545 5.57513ZM0.0163974 1.76042C0.0163974 2.43646 -0.0484399 3.77983 0.0797432 4.38447C0.112908 4.5409 0.144844 4.66984 0.189326 4.81638C0.233107 4.96055 0.278861 5.07373 0.336241 5.21243C0.364843 5.28156 0.391164 5.33541 0.420995 5.39965C0.445912 5.45333 0.483989 5.52725 0.514785 5.57816C0.582868 5.69066 0.647837 5.80156 0.725572 5.91296C0.767729 5.97337 0.7987 6.01759 0.840682 6.07106C1.04563 6.33224 1.25217 6.55391 1.5141 6.76763C1.69225 6.91299 1.97955 7.10273 2.1834 7.19971C2.33966 7.27404 2.84866 7.49778 3.00247 7.4998C3.16017 7.50186 3.65918 7.2772 3.81131 7.20467C4.03197 7.09945 4.4485 6.82346 4.632 6.64933C4.86318 6.42993 4.96535 6.32509 5.15772 6.0796C5.64601 5.45649 5.92063 4.7043 5.98784 3.92241C6.01468 3.61024 5.98867 3.17493 5.98867 2.84926C5.98867 2.48631 5.98867 2.12336 5.98867 1.76042C5.94261 1.75011 5.84469 1.70568 5.80205 1.68582L4.87547 1.2917C4.62046 1.1901 3.05401 0.499756 3.00255 0.499756C2.96316 0.499756 2.36015 0.768885 2.26048 0.810072C2.00499 0.915587 1.77301 1.02295 1.51603 1.12531C1.39013 1.17546 1.27072 1.23146 1.15149 1.28283L0.0163974 1.76037V1.76042Z" fill="black"/>
</g>
<defs>
<clipPath id="clip0_944_2814">
<rect width="6" height="7" fill="white" transform="translate(0 0.5)"/>
</clipPath>
</defs>
</svg>
