<svg width="15" height="15" viewBox="0 0 15 15" fill="none" xmlns="http://www.w3.org/2000/svg">
<path d="M6.44321 8.35731L12.4457 2.35481M6.51614 8.54485L8.01854 12.4082C8.1509 12.7485 8.21708 12.9187 8.31243 12.9684C8.39509 13.0114 8.49356 13.0115 8.57628 12.9685C8.67169 12.919 8.73807 12.7489 8.87082 12.4087L12.6383 2.75451C12.7581 2.44743 12.8181 2.29388 12.7853 2.19577C12.7568 2.11056 12.6899 2.04369 12.6047 2.01523C12.5066 1.98245 12.3531 2.04237 12.046 2.16221L2.39184 5.92969C2.05165 6.06244 1.88156 6.12882 1.83199 6.22424C1.78902 6.30695 1.78908 6.40542 1.83215 6.48808C1.88183 6.58344 2.052 6.64961 2.39234 6.78197L6.25566 8.28437C6.32475 8.31124 6.35929 8.32467 6.38838 8.34542C6.41416 8.36381 6.4367 8.38635 6.45509 8.41214C6.47584 8.44122 6.48927 8.47576 6.51614 8.54485Z" stroke="#868686" stroke-linecap="round" stroke-linejoin="round"/>
</svg>
