<svg width="13" height="13" viewBox="0 0 13 13" fill="none" xmlns="http://www.w3.org/2000/svg">
<path d="M11.9378 4.7076L11.9378 1.19019M11.9378 1.19019H8.42043M11.9378 1.19019L6.66173 6.4663M5.48926 1.19019H4.19955C3.21458 1.19019 2.7221 1.19019 2.34589 1.38187C2.01497 1.55049 1.74592 1.81953 1.57731 2.15045C1.38562 2.52666 1.38562 3.01915 1.38562 4.00411V8.92848C1.38562 9.91345 1.38562 10.4059 1.57731 10.7821C1.74592 11.1131 2.01497 11.3821 2.34589 11.5507C2.7221 11.7424 3.21458 11.7424 4.19955 11.7424H9.12392C10.1089 11.7424 10.6014 11.7424 10.9776 11.5507C11.3085 11.3821 11.5775 11.1131 11.7462 10.7821C11.9378 10.4059 11.9378 9.91345 11.9378 8.92848V7.63877" stroke="#868686" stroke-width="1.05522" stroke-linecap="round" stroke-linejoin="round"/>
</svg>
