<svg width="8" height="9" viewBox="0 0 8 9" fill="none" xmlns="http://www.w3.org/2000/svg">
<path fill-rule="evenodd" clip-rule="evenodd" d="M2.81454 6.09045L1.22813 4.57796L1.76939 4.05003C1.85572 4.10693 1.95458 4.2187 2.0306 4.29161L2.67446 4.90914C2.72152 4.95453 2.7499 5.00325 2.81912 5.02102L5.42737 2.52866L5.9778 3.04775L2.81449 6.0905L2.81454 6.09045ZM0.0196769 1.51279C0.0196769 2.32404 -0.0581279 3.93609 0.0956918 4.66166C0.135489 4.84937 0.173812 5.00411 0.227191 5.17995C0.279728 5.35296 0.334634 5.48876 0.403489 5.65521C0.437812 5.73816 0.469397 5.80278 0.505193 5.87987C0.535094 5.94429 0.580787 6.033 0.617742 6.09408C0.699442 6.22908 0.777405 6.36216 0.870686 6.49585C0.921275 6.56834 0.95844 6.6214 1.00882 6.68557C1.25476 6.99898 1.5026 7.26499 1.81693 7.52145C2.0307 7.69588 2.37546 7.92357 2.62008 8.03994C2.80759 8.12915 3.4184 8.39763 3.60296 8.40005C3.79221 8.40252 4.39101 8.13293 4.57357 8.0459C4.83836 7.91963 5.3382 7.58845 5.5584 7.37949C5.83582 7.11621 5.95842 6.9904 6.18926 6.69582C6.77522 5.94808 7.10475 5.04545 7.1854 4.10718C7.21762 3.73258 7.1864 3.21021 7.1864 2.8194C7.1864 2.38387 7.1864 1.94833 7.1864 1.51279C7.13113 1.50042 7.01363 1.44711 6.96246 1.42328L5.85056 0.950336C5.54455 0.828414 3.66481 0 3.60307 0C3.55579 0 2.83218 0.322955 2.71257 0.37238C2.40599 0.498997 2.12762 0.627835 1.81924 0.750666C1.66816 0.810845 1.52487 0.878041 1.38179 0.939683L0.0196769 1.51274V1.51279Z" fill="black"/>
</svg>
