<svg width="25" height="16" viewBox="0 0 25 16" fill="none" xmlns="http://www.w3.org/2000/svg">
<g clip-path="url(#clip0_1492_13077)">
<path fill-rule="evenodd" clip-rule="evenodd" d="M14.1758 1.24601C14.1758 1.93806 14.585 2.18087 14.9442 2.63295C17.0761 5.31299 17.1904 9.20083 15.1886 12.0247L14.7241 12.6332C14.5206 12.8663 14.1764 13.1342 14.1764 13.7034C14.1764 14.1032 14.3251 14.3892 14.5184 14.5984C15.0167 15.1381 15.7449 15.1358 16.2636 14.578C17.8976 12.8214 19.0001 10.2909 19.0001 7.76955V7.21909C19.0001 5.03549 18.1355 2.90362 17.1657 1.53773C16.5681 0.695563 15.8244 -0.435479 14.7939 0.171269C14.4905 0.349824 14.1753 0.777448 14.1753 1.24545L14.1758 1.24601Z" fill="#808080"/>
<path fill-rule="evenodd" clip-rule="evenodd" d="M0 7.29834C0 8.47545 0.0687336 9.05433 0.318967 10.1046C0.501003 10.8712 0.7507 11.4808 1.05141 12.1188C1.20176 12.4378 1.34943 12.7056 1.52879 12.9888C1.8252 13.4568 2.58556 14.589 3.07905 14.8449C3.58005 15.1042 4.07783 15.0217 4.44513 14.639C4.90586 14.1585 4.95097 13.4238 4.55414 12.9291C4.4709 12.825 4.38552 12.7534 4.29478 12.6539C2.29721 10.456 1.77687 6.87356 3.19128 3.99734C3.42809 3.5157 3.70785 3.11196 4.00803 2.70082C4.09555 2.58027 4.16107 2.52909 4.25933 2.4165C4.55521 2.07815 4.82477 1.78416 4.82477 1.24679C4.82477 0.306815 3.77337 -0.348268 2.98508 0.202184C2.67309 0.419976 2.05825 1.20755 1.83486 1.53851C0.746941 3.14494 0.00107396 5.1898 0.00107396 7.29891L0 7.29834Z" fill="#808080"/>
<path fill-rule="evenodd" clip-rule="evenodd" d="M6.30854 12.0138C6.69409 12.0138 6.96312 11.9723 7.26544 11.6521C7.71274 11.1784 7.7267 10.3755 7.30141 9.90123C6.02769 8.48189 6.01857 6.47228 7.28316 5.1081C7.91465 4.42686 7.64615 2.9751 6.34559 2.9751C5.60724 2.9751 4.97092 4.05098 4.63638 4.66285C4.4291 5.04213 4.28304 5.44587 4.15148 5.91785C4.08275 6.16351 3.97213 6.74126 3.96998 7.02217C3.96837 7.23484 3.94152 7.30706 3.934 7.45832C3.92058 7.72729 4.06073 8.74062 4.13376 9.01073C4.34748 9.79831 4.64228 10.4335 5.08851 11.0647C5.35539 11.4417 5.80538 12.0132 6.308 12.0132L6.30854 12.0138Z" fill="#808080"/>
<path fill-rule="evenodd" clip-rule="evenodd" d="M11.3925 4.11459C11.3925 5.06366 11.734 4.96358 12.1797 5.71761C12.9691 7.05393 12.7537 8.76499 11.7168 9.88125C11.2787 10.3527 11.2803 11.1539 11.7158 11.6321C12.2941 12.2667 13.1495 12.0933 13.6935 11.3461C14.4184 10.3492 15.0123 9.25176 15.0289 7.92681C15.0316 7.71072 15.0687 7.6857 15.0687 7.49463C15.0687 7.30357 15.0338 7.30129 15.0289 7.10227C15.0241 6.90893 15.0193 6.84865 14.9989 6.70194C14.8877 5.89503 14.6396 5.07447 14.2283 4.41313L13.6935 3.64375C13.3723 3.20191 13.0872 2.97559 12.5057 2.97559C11.9101 2.97559 11.3925 3.59484 11.3925 4.11516V4.11459Z" fill="#808080"/>
<path fill-rule="evenodd" clip-rule="evenodd" d="M7.9043 7.49471C7.9043 8.41421 8.63191 9.18473 9.5002 9.18473C10.3685 9.18473 11.0961 8.41421 11.0961 7.49471C11.0961 6.57521 10.3685 5.80469 9.5002 5.80469C8.63191 5.80469 7.9043 6.57521 7.9043 7.49471Z" fill="#808080"/>
</g>
<path fill-rule="evenodd" clip-rule="evenodd" d="M19.5966 10.4292C19.5966 10.7166 19.7029 10.8694 19.9224 11.0467C20.3553 11.3966 21.1772 11.007 21.7623 11.8577C22.4375 12.8392 21.5512 13.9142 20.8102 13.9305C20.8102 14.254 20.8641 14.8961 20.2258 14.4693C20.2258 13.5676 20.2472 14.2634 19.4259 13.5622C19.2676 13.4271 19.192 13.4354 19.192 13.1671C19.192 13.0721 19.3742 12.7518 19.759 13.049C19.8906 13.1505 20.0703 13.3914 20.4508 13.3914C21.5696 13.3914 21.8904 11.8863 20.3614 11.8195C19.3833 11.7768 18.6814 10.7564 19.1229 9.86587C19.2867 9.53546 19.7239 9.1368 20.1806 9.12669C20.1806 8.79374 20.1098 8.10475 20.765 8.54314C20.765 8.81505 20.7932 8.92374 20.8098 9.12669C21.2326 9.16171 21.8437 9.46902 21.8437 9.93484C21.8437 10.1103 21.5573 10.2844 21.323 10.0508C21.2749 10.0027 21.3266 10.0374 21.2384 9.95579C20.6952 9.4524 19.5966 9.65065 19.5966 10.4292ZM16 11.2374C16 12.1188 16.0268 12.6431 16.4343 13.4524C16.9265 14.4299 17.5962 15.0878 18.5769 15.5775C19.7051 16.1408 21.2861 16.1408 22.4143 15.5775C22.9528 15.3088 23.2739 15.0846 23.6764 14.6827C25.8374 12.5247 25.2935 8.87969 22.474 7.46595C20.3021 6.37685 17.5994 7.24604 16.4343 9.56074C16.2285 9.96951 16 10.6473 16 11.2374Z" fill="#808080"/>
<defs>
<clipPath id="clip0_1492_13077">
<rect width="19" height="15" fill="white"/>
</clipPath>
</defs>
</svg>
