<svg width="19" height="16" viewBox="0 0 19 16" fill="none" xmlns="http://www.w3.org/2000/svg">
<g clip-path="url(#clip0_1492_13063)">
<path fill-rule="evenodd" clip-rule="evenodd" d="M14.1758 1.74601C14.1758 2.43806 14.585 2.68087 14.9442 3.13295C17.0761 5.81299 17.1904 9.70083 15.1886 12.5247L14.7241 13.1332C14.5206 13.3663 14.1764 13.6342 14.1764 14.2034C14.1764 14.6032 14.3251 14.8892 14.5184 15.0984C15.0167 15.6381 15.7449 15.6358 16.2636 15.078C17.8976 13.3214 19.0001 10.7909 19.0001 8.26955V7.71909C19.0001 5.53549 18.1355 3.40362 17.1657 2.03773C16.5681 1.19556 15.8244 0.0645213 14.7939 0.671269C14.4905 0.849824 14.1753 1.27745 14.1753 1.74545L14.1758 1.74601Z" fill="#808080"/>
<path fill-rule="evenodd" clip-rule="evenodd" d="M0 7.79834C0 8.97545 0.0687336 9.55433 0.318967 10.6046C0.501003 11.3712 0.7507 11.9808 1.05141 12.6188C1.20176 12.9378 1.34943 13.2056 1.52879 13.4888C1.8252 13.9568 2.58556 15.089 3.07905 15.3449C3.58005 15.6042 4.07783 15.5217 4.44513 15.139C4.90586 14.6585 4.95097 13.9238 4.55414 13.4291C4.4709 13.325 4.38552 13.2534 4.29478 13.1539C2.29721 10.956 1.77687 7.37356 3.19128 4.49734C3.42809 4.0157 3.70785 3.61196 4.00803 3.20082C4.09555 3.08027 4.16107 3.02909 4.25933 2.9165C4.55521 2.57815 4.82477 2.28416 4.82477 1.74679C4.82477 0.806815 3.77337 0.151732 2.98508 0.702184C2.67309 0.919976 2.05825 1.70755 1.83486 2.03851C0.746941 3.64494 0.00107396 5.6898 0.00107396 7.79891L0 7.79834Z" fill="#808080"/>
<path fill-rule="evenodd" clip-rule="evenodd" d="M6.30854 12.5138C6.69409 12.5138 6.96312 12.4723 7.26544 12.1521C7.71274 11.6784 7.7267 10.8755 7.30141 10.4012C6.02769 8.98189 6.01857 6.97228 7.28316 5.6081C7.91465 4.92686 7.64615 3.4751 6.34559 3.4751C5.60724 3.4751 4.97092 4.55098 4.63638 5.16285C4.4291 5.54213 4.28304 5.94587 4.15148 6.41785C4.08275 6.66351 3.97213 7.24126 3.96998 7.52217C3.96837 7.73484 3.94152 7.80706 3.934 7.95832C3.92058 8.22729 4.06073 9.24062 4.13376 9.51073C4.34748 10.2983 4.64228 10.9335 5.08851 11.5647C5.35539 11.9417 5.80538 12.5132 6.308 12.5132L6.30854 12.5138Z" fill="#808080"/>
<path fill-rule="evenodd" clip-rule="evenodd" d="M11.3925 4.61459C11.3925 5.56366 11.734 5.46358 12.1797 6.21761C12.9691 7.55393 12.7537 9.26499 11.7168 10.3812C11.2787 10.8527 11.2803 11.6539 11.7158 12.1321C12.2941 12.7667 13.1495 12.5933 13.6935 11.8461C14.4184 10.8492 15.0123 9.75176 15.0289 8.42681C15.0316 8.21072 15.0687 8.1857 15.0687 7.99463C15.0687 7.80357 15.0338 7.80129 15.0289 7.60227C15.0241 7.40893 15.0193 7.34865 14.9989 7.20194C14.8877 6.39503 14.6396 5.57447 14.2283 4.91313L13.6935 4.14375C13.3723 3.70191 13.0872 3.47559 12.5057 3.47559C11.9101 3.47559 11.3925 4.09484 11.3925 4.61516V4.61459Z" fill="#808080"/>
<path fill-rule="evenodd" clip-rule="evenodd" d="M7.9043 7.99471C7.9043 8.91421 8.63191 9.68473 9.5002 9.68473C10.3685 9.68473 11.0961 8.91421 11.0961 7.99471C11.0961 7.07521 10.3685 6.30469 9.5002 6.30469C8.63191 6.30469 7.9043 7.07521 7.9043 7.99471Z" fill="#808080"/>
</g>
<defs>
<clipPath id="clip0_1492_13063">
<rect width="19" height="15" fill="white" transform="translate(0 0.5)"/>
</clipPath>
</defs>
</svg>
