<svg width="22" height="21" viewBox="0 0 22 21" fill="none" xmlns="http://www.w3.org/2000/svg">
<path d="M9.53963 1.01463C9.96224 -0.286043 11.8023 -0.286042 12.225 1.01463L13.7349 5.66187C13.9239 6.24355 14.466 6.63738 15.0776 6.63738H19.964C21.3316 6.63738 21.9002 8.38742 20.7938 9.19129L16.8406 12.0634C16.3458 12.4229 16.1388 13.0602 16.3278 13.6418L17.8378 18.2891C18.2604 19.5898 16.7717 20.6713 15.6653 19.8675L11.7121 16.9953C11.2173 16.6358 10.5473 16.6358 10.0525 16.9953L6.0993 19.8675C4.99288 20.6713 3.5042 19.5898 3.92682 18.2891L5.4368 13.6418C5.6258 13.0602 5.41875 12.4229 4.92395 12.0634L0.970764 9.19128C-0.135655 8.38742 0.43297 6.63738 1.80058 6.63738H6.68698C7.29859 6.63738 7.84065 6.24355 8.02965 5.66187L9.53963 1.01463Z" fill="#007AFF"/>
</svg>
