<svg width="11" height="11" viewBox="0 0 11 11" fill="none" xmlns="http://www.w3.org/2000/svg">
<path d="M4.54894 1.42705C4.8483 0.505741 6.1517 0.50574 6.45106 1.42705L6.95934 2.99139C7.09321 3.40341 7.47717 3.68237 7.9104 3.68237H9.55524C10.524 3.68237 10.9267 4.92199 10.143 5.49139L8.81232 6.4582C8.46183 6.71285 8.31518 7.16422 8.44905 7.57624L8.95733 9.14058C9.25669 10.0619 8.20221 10.828 7.41849 10.2586L6.08779 9.2918C5.7373 9.03715 5.2627 9.03715 4.91221 9.2918L3.58151 10.2586C2.7978 10.828 1.74331 10.0619 2.04267 9.14058L2.55095 7.57624C2.68483 7.16422 2.53817 6.71285 2.18768 6.4582L0.856976 5.49139C0.0732617 4.92199 0.476037 3.68237 1.44476 3.68237H3.0896C3.52283 3.68237 3.90678 3.40341 4.04066 2.99139L4.54894 1.42705Z" fill="#00CE83"/>
</svg>
