<svg width="23" height="18" viewBox="0 0 23 18" fill="none" xmlns="http://www.w3.org/2000/svg">
<path fill-rule="evenodd" clip-rule="evenodd" d="M0 16.6707V17.8835H13.9709C13.9709 16.0992 13.8601 14.9682 12.9288 13.4898C12.4702 12.7619 12.2129 12.4852 11.5784 11.9204C11.4841 11.8364 11.4463 11.8191 11.3553 11.7392C11.2433 11.6408 11.2379 11.6277 11.1054 11.54C10.734 11.2938 10.4639 11.1455 10.0477 10.9356C8.39635 10.1027 5.75113 10.0714 4.10307 10.8458C3.41552 11.169 3.12938 11.3086 2.55464 11.768C2.10176 12.1295 1.68882 12.561 1.34134 13.0254C1.09679 13.3523 0.897521 13.6619 0.704019 14.0501C0.599033 14.2601 0.527396 14.389 0.454936 14.6096C0.243319 15.254 0.000411707 15.9374 0.000411707 16.6707H0Z" fill="#808080"/>
<path fill-rule="evenodd" clip-rule="evenodd" d="M12.1292 10.606C12.2392 10.7702 12.8378 11.2247 13.0021 11.4401C13.0988 11.5669 13.1783 11.6303 13.287 11.7394C13.4607 11.9144 13.6246 12.1634 13.779 12.3701C13.9552 12.6056 14.0787 12.8316 14.2322 13.0848C14.7769 13.9803 15.2734 15.5468 15.2734 16.6704H22.9999V15.2381C22.9773 14.3327 22.8616 13.5138 22.3713 12.5373C22.2012 12.1988 22.0139 11.8859 21.7941 11.5871C20.5046 9.83153 18.6301 8.98877 16.441 8.98877C15.3974 8.98877 14.2257 9.26173 13.4615 9.69279L12.1284 10.606H12.1292Z" fill="#808080"/>
<path fill-rule="evenodd" clip-rule="evenodd" d="M2.78516 4.22729C2.78516 5.33766 2.93955 6.1796 3.59334 7.10306L4.07586 7.6988C4.59996 8.2262 5.34144 8.66672 6.09075 8.82852C7.04138 9.03397 7.9422 8.90675 8.7302 8.51069C9.61373 8.06646 10.4091 7.27269 10.7879 6.34552C11.2684 5.16886 11.3701 3.8127 10.8118 2.62534C10.3655 1.67636 9.78953 0.943519 8.80555 0.454C7.64042 -0.125683 6.36124 -0.165619 5.18047 0.423122C4.69095 0.667264 4.37723 0.954635 4.00957 1.319C3.40972 1.9135 2.78557 3.05187 2.78557 4.2277L2.78516 4.22729Z" fill="#808080"/>
<path fill-rule="evenodd" clip-rule="evenodd" d="M16.3516 8.27012C17.8132 8.27012 18.649 7.80118 19.4707 6.67228C20.4934 5.26754 20.3073 2.98133 19.0586 1.74498C18.6774 1.36744 18.7021 1.40367 18.3101 1.14553C17.3385 0.505739 16.035 0.486389 15.0029 0.991553C14.6851 1.14718 14.1577 1.49836 13.9444 1.77503C13.109 2.86029 12.7262 3.72282 12.981 5.21649C13.2498 6.79168 14.6768 8.27012 16.3512 8.27012H16.3516Z" fill="#808080"/>
</svg>
