<svg width="26" height="26" viewBox="0 0 26 26" fill="none" xmlns="http://www.w3.org/2000/svg">
<path d="M0 12.6657C0 5.63814 5.664 0.0265831 12.6916 0.00035962C19.7191 -0.0520841 25.3831 5.63814 25.3831 12.6657C25.3831 19.667 19.7191 25.3573 12.6916 25.3573C5.664 25.3573 0 19.667 0 12.6657ZM19.3782 10.0959C20.0076 9.59769 20.532 9.0208 20.9778 8.44392C20.3484 8.67992 19.7453 8.86347 19.116 8.91592C19.824 8.5488 20.2436 7.94569 20.5058 7.21147C19.9551 7.6048 19.0373 8.57503 18.4867 7.99814C17.8573 7.31636 17.1231 6.97547 16.2316 6.97547C15.34 6.97547 14.5796 7.31636 14.0027 7.86703C13.3733 8.49636 13.0849 9.25681 13.0849 10.1221C13.0849 10.3319 13.1111 10.5679 13.1898 10.8039C11.8524 10.7777 10.6724 10.3844 9.51867 9.83369C8.36489 9.25681 7.42089 8.49636 6.63422 7.57858C6.372 8.05058 6.18845 8.5488 6.18845 9.09947C6.18845 10.2532 6.68667 11.0924 7.63067 11.7479C7.13244 11.7479 6.63422 11.5906 6.18845 11.3546C6.18845 11.407 6.18845 11.407 6.18845 11.407C6.18845 12.1675 6.45067 12.8492 6.92267 13.4261C7.42089 14.0292 7.99778 14.3701 8.75822 14.475C8.496 14.5799 8.18133 14.5012 7.89289 14.5799C7.76178 14.6061 7.552 14.5799 7.316 14.5537C7.52578 15.1306 7.89289 15.655 8.39111 16.1008C8.968 16.5204 9.54489 16.7301 10.2529 16.7301C9.09911 17.6479 7.81422 17.8839 6.34578 18.0675C6.00489 18.1199 5.76889 18.0675 5.55911 18.0675C7.02756 18.9853 8.62711 19.431 10.4102 19.431C13.3209 19.431 15.4973 18.487 17.0444 16.5204C18.5916 14.5799 19.3782 12.5608 19.3782 10.463C19.3782 10.4368 19.3782 10.3319 19.3782 10.2532C19.3782 10.227 19.3782 10.1484 19.3782 10.0959Z" fill="black"/>
</svg>
