<svg width="18" height="21" viewBox="0 0 18 21" fill="none" xmlns="http://www.w3.org/2000/svg">
<path fill-rule="evenodd" clip-rule="evenodd" d="M7.03636 15.2261L3.07031 11.4449L4.42347 10.1251C4.63931 10.2673 4.88646 10.5468 5.0765 10.729L6.68616 12.2729C6.80381 12.3863 6.87475 12.5081 7.04781 12.5525L13.5684 6.32165L14.9445 7.61937L7.03622 15.2262L7.03636 15.2261ZM0.0491922 3.78198C0.0491922 5.8101 -0.14532 9.84022 0.23923 11.6542C0.338723 12.1234 0.434531 12.5103 0.567978 12.9499C0.69932 13.3824 0.836584 13.7219 1.00872 14.138C1.09453 14.3454 1.17349 14.507 1.26298 14.6997C1.33774 14.8607 1.45197 15.0825 1.54435 15.2352C1.74861 15.5727 1.94351 15.9054 2.17672 16.2396C2.30319 16.4209 2.3961 16.5535 2.52205 16.7139C3.1369 17.4975 3.7565 18.1625 4.54231 18.8036C5.07676 19.2397 5.93864 19.8089 6.55021 20.0998C7.01898 20.3229 8.54599 20.9941 9.0074 21.0001C9.48052 21.0063 10.9775 20.3323 11.4339 20.1147C12.0959 19.7991 13.3455 18.9711 13.896 18.4487C14.5896 17.7905 14.8961 17.476 15.4731 16.7395C16.938 14.8702 17.7619 12.6136 17.9635 10.268C18.044 9.33145 17.966 8.02553 17.966 7.04851C17.966 5.95967 17.966 4.87082 17.966 3.78198C17.8278 3.75106 17.5341 3.61778 17.4062 3.55821L14.6264 2.37584C13.8614 2.07103 9.16204 0 9.00766 0C8.88948 0 7.08044 0.807387 6.78144 0.930949C6.01497 1.24749 5.31904 1.56959 4.5481 1.87667C4.1704 2.02711 3.81217 2.1951 3.45447 2.34921L0.0491922 3.78186V3.78198Z" fill="#FF6262"/>
</svg>
